<svg xmlns="http://www.w3.org/2000/svg" version="1.1" viewBox="-5.0 -10.0 110.0 110.0" fill="#F7E7EF">
 <path fill="#F7E7EF" d="m73.941 52.879c-1.3164-1.3164-3.1367-2.1328-5.1445-2.1328s-3.8281 0.8125-5.1445 2.1328c-1.3164 1.3164-2.1328 3.1367-2.1328 5.1445 0 2.0078 0.8125 3.8281 2.1328 5.1445 1.3164 1.3164 3.1367 2.1328 5.1445 2.1328s3.8281-0.8125 5.1445-2.1328c1.3164-1.3164 2.1328-3.1367 2.1328-5.1445 0-2.0078-0.8125-3.8281-2.1328-5.1445zm12.996 26.73c-1.707-3.168-4.2227-5.8398-7.2695-7.7383-3.1523-1.9648-6.8789-3.0977-10.871-3.0977s-7.7188 1.1367-10.871 3.0977c-3.0508 1.8984-5.5664 4.5703-7.2695 7.7383 0.43359 0.51562 0.89062 1.0117 1.3633 1.4844 4.293 4.293 10.227 6.9492 16.777 6.9492s12.484-2.6562 16.777-6.9492c0.47656-0.47656 0.92969-0.97266 1.3633-1.4844zm-37.844-2.0664c-2.5391-3.7773-4.0234-8.3281-4.0234-13.223 0-6.5508 2.6562-12.484 6.9492-16.777s10.227-6.9492 16.777-6.9492 12.484 2.6562 16.777 6.9492 6.9492 10.227 6.9492 16.777c0 4.8945-1.4844 9.4453-4.0234 13.223-1.8789-3.1289-4.4805-5.7695-7.5703-7.6953-2.4023-1.4961-5.1016-2.5625-7.9844-3.0898 1.0039-0.47656 1.9102-1.1211 2.6875-1.8984 1.75-1.75 2.832-4.1641 2.832-6.8359 0-2.668-1.082-5.0859-2.832-6.8359s-4.1641-2.832-6.8359-2.832c-2.668 0-5.0859 1.082-6.8359 2.832s-2.832 4.1641-2.832 6.8359c0 2.668 1.082 5.0859 2.832 6.8359 0.77734 0.77734 1.6836 1.4219 2.6875 1.8984-2.8867 0.52734-5.582 1.5938-7.9844 3.0898-3.0898 1.9258-5.6914 4.5664-7.5703 7.6953zm-35.559-8.0508c-0.66016 0-1.1953-0.53516-1.1953-1.1953s0.53516-1.1953 1.1953-1.1953h29.289c-0.097657-0.91406-0.14844-1.8438-0.14844-2.7852 0-0.88281 0.042969-1.7578 0.12891-2.6172l-34.145 0.003906c-0.32422 0-0.62109 0.13281-0.83594 0.34766-0.21484 0.21484-0.34766 0.51172-0.34766 0.83594v10.824c0 0.32422 0.13281 0.62109 0.34766 0.83594 0.21484 0.21484 0.51172 0.34766 0.83594 0.34766h36.246c-0.75781-1.7109-1.3398-3.5195-1.7188-5.4023zm62.984-30.133v-1.3477c0-0.32422-0.13281-0.62109-0.34766-0.83594-0.21484-0.21484-0.51172-0.34766-0.83594-0.34766h-66.676c-0.32422 0-0.62109 0.13281-0.83594 0.34766-0.21484 0.21484-0.34766 0.51172-0.34766 0.83594v10.824c0 0.32422 0.13281 0.62109 0.34766 0.83594 0.21484 0.21484 0.51172 0.34766 0.83594 0.34766h38.273c0.98828-1.5078 2.125-2.9023 3.3945-4.1719 4.7266-4.7266 11.258-7.6484 18.469-7.6484 2.6875 0 5.2812 0.40625 7.7227 1.1602zm-62.984 5.2617h36.48c0.66016 0 1.1953-0.53516 1.1953-1.1953 0-0.66016-0.53516-1.1953-1.1953-1.1953h-36.48c-0.66016 0-1.1953 0.53516-1.1953 1.1953 0 0.66016 0.53516 1.1953 1.1953 1.1953zm61.801-32.668h-66.676c-0.32422 0-0.62109 0.13281-0.83594 0.34766-0.21484 0.21484-0.34766 0.51172-0.34766 0.83594v10.824c0 0.32422 0.13281 0.62109 0.34766 0.83594 0.21484 0.21484 0.51172 0.34766 0.83594 0.34766h66.672c0.32422 0 0.62109-0.13281 0.83594-0.34766 0.21484-0.21484 0.34766-0.51172 0.34766-0.83594v-10.824c0-0.32422-0.13281-0.62109-0.34766-0.83594-0.21484-0.21484-0.51172-0.34766-0.83594-0.34766zm-61.801 7.793c-0.66016 0-1.1953-0.53516-1.1953-1.1953 0-0.66016 0.53516-1.1953 1.1953-1.1953h36.48c0.66016 0 1.1953 0.53516 1.1953 1.1953 0 0.66016-0.53516 1.1953-1.1953 1.1953zm49.918-2.3906c0.66016 0 1.1953 0.53516 1.1953 1.1953 0 0.66016-0.53516 1.1953-1.1953 1.1953h-0.37891c-0.66016 0-1.1953-0.53516-1.1953-1.1953 0-0.66016 0.53516-1.1953 1.1953-1.1953zm5.9375 0c0.66016 0 1.1953 0.53516 1.1953 1.1953 0 0.66016-0.53516 1.1953-1.1953 1.1953h-0.37891c-0.66016 0-1.1953-0.53516-1.1953-1.1953 0-0.66016 0.53516-1.1953 1.1953-1.1953zm-11.875 0c0.66016 0 1.1953 0.53516 1.1953 1.1953 0 0.66016-0.53516 1.1953-1.1953 1.1953h-0.37891c-0.66016 0-1.1953-0.53516-1.1953-1.1953 0-0.66016 0.53516-1.1953 1.1953-1.1953zm-42.625 35.055v6.8984h28.266c0.47266-2.4375 1.2852-4.7539 2.3867-6.8984zm54.215-17.973v-6.8984h-54.215v6.8984zm2.3906-6.8984v6.8984h3.8398c0.98437 0 1.8789 0.40234 2.5273 1.0508 0.64844 0.64844 1.0508 1.543 1.0508 2.5273v2.2188c3.1445 1.3203 5.9766 3.2422 8.3555 5.6172 4.7266 4.7266 7.6484 11.258 7.6484 18.469 0 7.2148-2.9219 13.742-7.6484 18.469-4.7266 4.7266-11.258 7.6484-18.469 7.6484-7.2148 0-13.742-2.9219-18.469-7.6484-1.6328-1.6328-3.0508-3.4844-4.207-5.5l-37.465-0.003906c-0.98438 0-1.8789-0.40234-2.5273-1.0508-0.64844-0.64844-1.0508-1.543-1.0508-2.5273v-10.824c0-0.98437 0.40234-1.8789 1.0508-2.5273 0.64844-0.64844 1.543-1.0508 2.5273-1.0508h3.8398v-6.8984h-3.8398c-0.98438 0-1.8789-0.40234-2.5273-1.0508-0.64844-0.64844-1.0508-1.543-1.0508-2.5273v-10.824c0-0.98438 0.40234-1.8789 1.0508-2.5273 0.64844-0.64844 1.543-1.0508 2.5273-1.0508h3.8398v-6.8984h-3.8398c-0.98438 0-1.8789-0.40234-2.5273-1.0508-0.64844-0.64844-1.0508-1.543-1.0508-2.5273v-10.824c0-0.98438 0.40234-1.8789 1.0508-2.5273 0.64844-0.64844 1.543-1.0508 2.5273-1.0508h66.672c0.98438 0 1.8789 0.40234 2.5273 1.0508 0.64844 0.64844 1.0508 1.543 1.0508 2.5273v10.824c0 0.98438-0.40234 1.8789-1.0508 2.5273-0.64844 0.64844-1.543 1.0508-2.5273 1.0508h-3.8398z" fill-rule="evenodd"/>
</svg>