<svg width="64" height="46" viewBox="0 0 64 46" fill="none" xmlns="http://www.w3.org/2000/svg">
<g clip-path="url(#clip0_7019_13255)">
<path d="M63.4997 47.5322L57.4174 25.6587L59.5342 14.0304C59.6063 13.6648 59.6041 13.2884 59.5277 12.9236C59.4514 12.5588 59.3025 12.2131 59.0899 11.907C58.8773 11.6009 58.6053 11.3407 58.2901 11.1418C57.9749 10.943 57.623 10.8095 57.2551 10.7494L53.078 9.99439L50.9612 2.2328C50.7586 1.52035 50.2839 0.916127 49.6398 0.55048C48.9956 0.184833 48.2335 0.0870742 47.5179 0.278295L28.4667 5.54912L10.9608 2.39509C10.2309 2.27147 9.48155 2.43962 8.87441 2.86331C8.26726 3.28699 7.8509 3.93227 7.71508 4.66006L6.45205 11.6667L2.15496 12.8662C1.44381 13.0703 0.841264 13.5456 0.477032 14.1896C0.1128 14.8336 0.0160132 15.5948 0.207507 16.3095L3.48148 28.1142C3.48148 28.1142 2.71944 32.3478 2.69827 32.4465C2.18929 35.2371 2.23904 38.1009 2.84464 40.8721C3.45023 43.6433 4.59963 46.2668 6.22626 48.5906C7.41491 50.2921 8.8405 51.8152 10.4599 53.1135L12.8095 61.5807C13.0121 62.2947 13.4878 62.9002 14.1336 63.266C14.7794 63.6318 15.5433 63.7285 16.2599 63.5352L30.9716 59.4498L47.9413 62.505C48.6723 62.6307 49.4234 62.4635 50.0322 62.0396C50.6409 61.6158 51.0583 60.9693 51.1941 60.2401L52.4147 53.4945L61.5875 50.9544C62.2875 50.7428 62.878 50.2678 63.2347 49.6294C63.5914 48.9911 63.6864 48.2392 63.4997 47.5322ZM8.21605 35.0502L7.94087 34.9796L12.7319 8.39973L53.5084 15.7521L46.1561 56.5216L19.5691 51.7305C19.5622 51.6366 19.5622 51.5423 19.5691 51.4483L20.8392 44.357L20.9027 43.969C22.4552 45.1462 24.2358 45.9872 26.1312 46.4386L26.0818 46.7349C26.0487 46.9292 26.0929 47.1288 26.205 47.291C26.317 47.4532 26.4881 47.5651 26.6816 47.6028H26.8156C26.9855 47.5959 27.148 47.5313 27.2762 47.4198C27.4045 47.3082 27.4909 47.1562 27.5212 46.9889L27.62 46.7349C30.9214 47.1857 34.2765 46.4668 37.1033 44.7028L38.4721 46.6714C38.4714 46.6832 38.4714 46.6949 38.4721 46.7067C38.7109 47.0484 38.8798 47.4338 38.9694 47.841C39.0589 48.2481 39.0672 48.6689 38.9937 49.0792C38.9203 49.4896 38.7667 49.8814 38.5415 50.2322C38.3164 50.583 38.0243 50.886 37.6818 51.1237C37.6024 51.1761 37.5344 51.2441 37.4819 51.3234C37.4295 51.4028 37.3936 51.492 37.3764 51.5856C37.3593 51.6792 37.3613 51.7753 37.3822 51.8681C37.4032 51.9609 37.4427 52.0485 37.4984 52.1257C37.61 52.2891 37.7818 52.4017 37.9762 52.4387C38.1706 52.4758 38.3718 52.4342 38.5356 52.3232C38.8758 52.0819 39.2606 51.9107 39.6677 51.8198C40.0747 51.7288 40.4958 51.7198 40.9064 51.7934C41.3169 51.867 41.7087 52.0216 42.0588 52.2483C42.409 52.4749 42.7104 52.7691 42.9456 53.1135C43.0021 53.1941 43.074 53.2628 43.1571 53.3157C43.2401 53.3685 43.3328 53.4045 43.4298 53.4215C43.5267 53.4386 43.6261 53.4363 43.7222 53.415C43.8183 53.3936 43.9093 53.3535 43.9899 53.297C44.0705 53.2405 44.1392 53.1686 44.1921 53.0855C44.2449 53.0025 44.2809 52.9098 44.2979 52.8128C44.3149 52.7159 44.3127 52.6165 44.2913 52.5204C44.27 52.4243 44.2299 52.3333 44.1734 52.2527C43.6956 51.5636 43.5105 50.7132 43.6587 49.8879C43.8068 49.0626 44.2761 48.3297 44.9636 47.8498C45.0559 47.7991 45.1365 47.7297 45.2003 47.646C45.2641 47.5623 45.3098 47.4662 45.3343 47.3638C45.3588 47.2615 45.3616 47.1552 45.3426 47.0516C45.3235 46.9481 45.2831 46.8497 45.2238 46.7628C45.1645 46.6758 45.0877 46.6022 44.9983 46.5467C44.9089 46.4912 44.8089 46.455 44.7046 46.4404C44.6004 46.4258 44.4943 46.4332 44.3931 46.462C44.2919 46.4909 44.1978 46.5406 44.1169 46.6079C43.4253 47.0875 42.5716 47.273 41.7434 47.1235C40.9151 46.974 40.1801 46.5017 39.6999 45.8106C39.6975 45.7942 39.6975 45.7776 39.6999 45.7612L38.331 43.8067C40.9751 41.7894 42.8219 38.9031 43.5454 35.657L43.8347 35.7064H43.9758C44.147 35.7081 44.313 35.6475 44.4428 35.5358C44.5726 35.4242 44.6574 35.2691 44.6814 35.0996C44.7039 35.0038 44.7062 34.9043 44.688 34.8076C44.6698 34.7108 44.6315 34.619 44.5757 34.5379C44.5199 34.4568 44.4477 34.3883 44.3638 34.3368C44.28 34.2853 44.1862 34.2519 44.0887 34.2388L43.7782 34.1823C44.1781 30.9486 43.4558 27.6757 41.732 24.9107L44.7378 22.7939C45.0801 22.557 45.4658 22.3898 45.8727 22.302C46.2797 22.2142 46.7 22.2074 47.1095 22.2821C47.5191 22.3568 47.9099 22.5115 48.2597 22.7374C48.6094 22.9632 48.9112 23.2558 49.1478 23.5983C49.2597 23.7506 49.4242 23.8558 49.6094 23.8937C49.7945 23.9315 49.9871 23.8991 50.1498 23.803C50.2396 23.7536 50.3182 23.6862 50.3806 23.605C50.443 23.5238 50.4879 23.4305 50.5124 23.331C50.537 23.2315 50.5406 23.1281 50.5231 23.0271C50.5056 22.9262 50.4674 22.83 50.4108 22.7446C50.1735 22.4027 50.0059 22.0174 49.9175 21.6107C49.8292 21.204 49.8218 20.7839 49.8959 20.3744C49.9699 19.9648 50.1239 19.5739 50.3491 19.2239C50.5742 18.8739 50.8662 18.5717 51.2082 18.3346C51.3689 18.2221 51.4785 18.0505 51.5129 17.8574C51.5473 17.6643 51.5037 17.4654 51.3916 17.3044C51.3362 17.2217 51.265 17.1507 51.1821 17.0956C51.0992 17.0405 51.0062 17.0024 50.9085 16.9834C50.8108 16.9643 50.7103 16.9648 50.6128 16.9848C50.5153 17.0048 50.4226 17.0439 50.3403 17.0998C49.6542 17.5694 48.811 17.7504 47.9926 17.6039C47.1741 17.4574 46.4461 16.995 45.9656 16.3165C45.913 16.2292 45.8421 16.1542 45.7577 16.0969C45.6734 16.0396 45.5776 16.0012 45.477 15.9844C45.3764 15.9677 45.2734 15.9729 45.175 15.9998C45.0766 16.0267 44.9853 16.0746 44.9072 16.1402C44.7517 16.257 44.6473 16.4293 44.6157 16.6213C44.5842 16.8132 44.6279 17.0099 44.7378 17.1703C45.213 17.8609 45.3959 18.7113 45.2465 19.5361C45.0971 20.3609 44.6277 21.0932 43.9405 21.5733L43.8841 21.6227L40.9417 23.6759C38.9483 21.075 36.1118 19.2489 32.9191 18.511L32.9685 18.2146C32.991 18.1188 32.9932 18.0193 32.975 17.9226C32.9568 17.8259 32.9186 17.734 32.8628 17.6529C32.8069 17.5718 32.7348 17.5034 32.6509 17.4518C32.567 17.4003 32.4733 17.3669 32.3757 17.3538C32.2799 17.3312 32.1805 17.329 32.0837 17.3472C31.987 17.3654 31.8951 17.4037 31.8141 17.4595C31.733 17.5153 31.6645 17.5875 31.613 17.6713C31.5615 17.7552 31.5281 17.8489 31.5149 17.9465L31.4655 18.2358C28.1609 17.7817 24.8017 18.5035 21.9752 20.275C21.9752 20.275 21.9752 20.3244 20.564 18.2287C20.0906 17.5376 19.9102 16.6871 20.0623 15.8633C20.2143 15.0395 20.6865 14.3094 21.3755 13.8328C21.457 13.7771 21.5266 13.7056 21.5802 13.6226C21.6337 13.5395 21.6701 13.4466 21.6872 13.3493C21.7042 13.252 21.7017 13.1523 21.6797 13.056C21.6577 12.9597 21.6166 12.8688 21.5589 12.7886C21.4453 12.6406 21.2823 12.5385 21.0996 12.5009C20.9169 12.4633 20.7268 12.4928 20.564 12.5839C19.8733 13.0643 19.0202 13.2508 18.192 13.1027C17.3638 12.9545 16.6283 12.4837 16.147 11.7937C16.0918 11.716 16.0215 11.6502 15.9402 11.6004C15.8589 11.5506 15.7684 11.5178 15.6741 11.504C15.5798 11.4901 15.4837 11.4955 15.3916 11.5199C15.2994 11.5442 15.2132 11.5869 15.138 11.6455C14.9807 11.7532 14.8705 11.9169 14.8298 12.1031C14.7892 12.2893 14.8212 12.484 14.9192 12.6474C15.1615 12.9929 15.3323 13.3832 15.4216 13.7956C15.5109 14.208 15.517 14.634 15.4394 15.0487C15.3619 15.4635 15.2023 15.8585 14.97 16.2107C14.7377 16.5629 14.4373 16.8652 14.0866 17.0998C14.0052 17.1521 13.9353 17.2207 13.8815 17.3013C13.8277 17.3818 13.7911 17.4726 13.7739 17.5679C13.7567 17.6632 13.7593 17.761 13.7815 17.8553C13.8038 17.9496 13.8452 18.0383 13.9032 18.1158C13.9548 18.2021 14.0242 18.2763 14.1068 18.3336C14.1894 18.3909 14.2833 18.4298 14.3821 18.4478C14.481 18.4659 14.5826 18.4626 14.6801 18.4382C14.7776 18.4138 14.8687 18.3688 14.9475 18.3063C15.5848 17.86 16.3645 17.665 17.1369 17.7588C17.9092 17.8526 18.6197 18.2285 19.1317 18.8144L20.7475 21.1428C18.1703 23.1292 16.3462 25.9337 15.5754 29.0949L15.0815 29.0032C14.9828 28.9861 14.8817 28.9885 14.784 29.0105C14.6863 29.0324 14.5938 29.0734 14.5119 29.131C14.43 29.1887 14.3603 29.2619 14.3067 29.3465C14.2531 29.4311 14.2167 29.5255 14.1995 29.6241C14.1824 29.7228 14.1848 29.8239 14.2068 29.9216C14.2287 30.0194 14.2697 30.1118 14.3273 30.1937C14.385 30.2756 14.4582 30.3454 14.5428 30.399C14.6274 30.4526 14.7218 30.489 14.8205 30.5061L15.3003 30.5908C15.22 31.2275 15.1776 31.8683 15.1733 32.51C15.1677 33.8453 15.3579 35.1742 15.7377 36.4543L15.3003 36.3556L8.21605 35.0502ZM35.7908 40.1658C37.4629 38.814 38.6432 36.9493 39.1495 34.8597L42.0777 35.3889C41.4312 38.2518 39.813 40.8025 37.4984 42.6072L35.7908 40.1658ZM36.2636 43.4609C33.7626 45.0076 30.8024 45.6386 27.8881 45.2461L28.4244 42.3249C28.7966 42.3703 29.1714 42.3915 29.5463 42.3884C31.3174 42.3789 33.0531 41.8914 34.5702 40.9772L36.2636 43.4609ZM39.3965 33.392C39.5987 31.324 39.1365 29.2454 38.077 27.458L40.5184 25.7645C42.0184 28.2038 42.6546 31.0767 42.3247 33.9212L39.3965 33.392ZM37.2232 26.2302C35.9159 24.6168 34.1333 23.4564 32.1288 22.9139L32.6509 19.9857C35.432 20.6797 37.9009 22.2843 39.6646 24.5438L37.2232 26.2302ZM36.0096 27.084L35.8755 27.1687C35.7501 27.2621 35.6571 27.3925 35.6097 27.5415C35.5622 27.6905 35.5626 27.8506 35.6109 27.9994C35.6592 28.1481 35.7529 28.278 35.8788 28.3708C36.0048 28.4635 36.1566 28.5144 36.313 28.5163C36.4649 28.5184 36.6133 28.4714 36.7363 28.3823L36.8634 28.2976C37.7046 29.7594 38.0789 31.4434 37.9359 33.1239L33.0531 32.2419C32.9572 32.2252 32.859 32.2276 32.764 32.2489C32.669 32.2702 32.5791 32.31 32.4995 32.366C32.4199 32.422 32.3521 32.4932 32.3 32.5754C32.2479 32.6576 32.2125 32.7493 32.1958 32.8452C32.1791 32.9411 32.1815 33.0393 32.2028 33.1343C32.2241 33.2293 32.2639 33.3192 32.3199 33.3988C32.433 33.5596 32.6054 33.6688 32.7991 33.7025L37.7383 34.5986C37.2887 36.3155 36.3083 37.8465 34.9371 38.9733L34.6548 38.5641C34.5407 38.4031 34.3673 38.2941 34.1727 38.2611C33.9782 38.228 33.7785 38.2735 33.6176 38.3877C33.4567 38.5018 33.3477 38.6752 33.3146 38.8698C33.2815 39.0643 33.327 39.264 33.4412 39.4249L33.7234 39.8342C32.2005 40.7026 30.443 41.0704 28.6996 40.8855L29.5745 35.9816C29.6082 35.7879 29.5636 35.5888 29.4504 35.428C29.3373 35.2672 29.1649 35.158 28.9712 35.1243C28.7775 35.0906 28.5784 35.1352 28.4176 35.2484C28.2569 35.3615 28.1476 35.5339 28.1139 35.7276L27.2319 40.6174C25.6137 40.1558 24.1725 39.2164 23.0971 37.922L23.6193 37.5551C23.7096 37.5035 23.7881 37.4337 23.8499 37.35C23.9116 37.2664 23.9553 37.1708 23.9781 37.0694C24.0008 36.9679 24.0022 36.8629 23.9821 36.7608C23.962 36.6588 23.9208 36.5621 23.8612 36.4769C23.8016 36.3917 23.7249 36.3199 23.636 36.266C23.5471 36.2121 23.4479 36.1774 23.3448 36.1639C23.2417 36.1505 23.1369 36.1588 23.0372 36.1881C22.9374 36.2174 22.8449 36.2673 22.7655 36.3344L22.2434 36.7013C21.3745 35.181 21.0067 33.4257 21.192 31.6845L25.8984 32.5242C26.0842 32.5388 26.2688 32.4836 26.416 32.3693C26.5632 32.2549 26.6624 32.0898 26.6942 31.9061C26.726 31.7224 26.6881 31.5335 26.5878 31.3764C26.4876 31.2192 26.3323 31.1051 26.1524 31.0565L21.4813 30.2168C21.9384 28.5963 22.8757 27.1523 24.1696 26.075L24.2614 26.1949C24.3739 26.3553 24.5449 26.4651 24.7375 26.5007C24.9302 26.5363 25.1291 26.4949 25.2915 26.3854C25.3757 26.3337 25.448 26.2649 25.5038 26.1835C25.5597 26.1021 25.5978 26.0098 25.6158 25.9127C25.6337 25.8156 25.6311 25.7158 25.6081 25.6198C25.585 25.5238 25.5421 25.4337 25.482 25.3553L25.3903 25.2212C26.6594 24.4932 28.0974 24.1112 29.5604 24.1134C29.8482 24.1147 30.1357 24.1335 30.4212 24.1699L29.5392 29.0667C29.5219 29.2535 29.5753 29.44 29.689 29.5892C29.8027 29.7385 29.9683 29.8395 30.153 29.8724C30.3377 29.9052 30.528 29.8675 30.6861 29.7666C30.8443 29.6657 30.9588 29.5091 31.0069 29.3278L31.8536 24.3957C33.4785 24.8518 34.9273 25.789 36.0096 27.084ZM26.9568 42.0427L26.4346 44.9709C24.3682 44.4636 22.4616 43.4473 20.8886 42.0145C20.7729 41.2745 20.5344 40.559 20.183 39.8977L21.8482 38.7334C23.1567 40.3507 24.9458 41.5097 26.9568 42.0427ZM30.6682 22.6387C28.5365 22.3908 26.3824 22.8494 24.5365 23.9441L22.8361 21.5027C25.3305 19.9654 28.2777 19.3327 31.1833 19.7105L30.6682 22.6387ZM23.3088 24.7978C21.698 26.1062 20.5401 27.8887 19.9995 29.8923L17.036 29.3631C17.711 26.5773 19.3134 24.1039 21.5801 22.3494L23.3088 24.7978ZM19.6961 31.3599C19.6481 31.7343 19.6245 32.1114 19.6256 32.4889C19.6261 34.2555 20.0987 35.99 20.9944 37.5127L19.3363 38.6629C18.834 38.0611 18.2297 37.5523 17.5511 37.1599C16.9653 35.6722 16.6637 34.0878 16.6621 32.4889C16.6626 31.9345 16.698 31.3807 16.7679 30.8307L19.6961 31.3599ZM15.8365 62.124C15.6702 62.1713 15.4962 62.1852 15.3244 62.165C15.1527 62.1447 14.9867 62.0908 14.8359 62.0062C14.6851 61.9216 14.5525 61.8081 14.4457 61.6721C14.3389 61.5361 14.26 61.3804 14.2136 61.2138L12.3509 54.4965C17.0925 57.5235 21.2202 57.6152 22.8925 58.0245L27.5636 58.8712L15.8365 62.124ZM49.7052 60.0072C49.6418 60.3483 49.4458 60.6504 49.1602 60.8475C48.8746 61.0445 48.5226 61.1204 48.1812 61.0586C48.1578 61.0545 48.1339 61.0545 48.1106 61.0586L47.8072 61.0092L47.5955 60.9668H47.5532H47.4967C47.43 60.9607 47.3639 60.9489 47.2992 60.9316C45.1824 60.5646 39.086 59.4569 23.2171 56.5992C22.3795 56.4444 21.6043 56.0512 20.9848 55.4667C20.3652 54.8822 19.9276 54.1312 19.7244 53.304L46.6923 58.1656H46.8335C47.0026 58.1562 47.1637 58.0908 47.2915 57.9796C47.4193 57.8685 47.5064 57.7179 47.5391 57.5517L55.096 15.2864C55.1186 15.1906 55.1208 15.0911 55.1026 14.9944C55.0844 14.8976 55.0461 14.8058 54.9903 14.7247C54.9345 14.6436 54.8623 14.5751 54.7785 14.5236C54.6946 14.4721 54.6009 14.4387 54.5033 14.4255L12.2662 6.81214C12.1709 6.79072 12.0721 6.78933 11.9762 6.80806C11.8803 6.82679 11.7894 6.86523 11.7091 6.92095C11.6288 6.97667 11.561 7.04845 11.51 7.13175C11.4589 7.21504 11.4257 7.30804 11.4124 7.40484L6.53673 34.3517C5.83905 33.8874 5.29017 33.2317 4.95599 32.4632C4.62181 31.6947 4.51653 30.8461 4.65278 30.0193C4.65278 29.9205 4.60339 30.2592 9.17567 4.91408C9.20544 4.74574 9.26818 4.58493 9.36026 4.4409C9.45234 4.29686 9.57197 4.17243 9.71227 4.07475C9.85257 3.97706 10.0108 3.90805 10.1778 3.87167C10.3449 3.83528 10.5174 3.83225 10.6856 3.86274L56.98 12.2029C57.1508 12.2309 57.3143 12.2929 57.4607 12.3853C57.607 12.4776 57.7334 12.5985 57.8321 12.7407C57.9308 12.8829 58 13.0435 58.0354 13.2129C58.0708 13.3823 58.0719 13.5572 58.0384 13.727L49.7052 60.0072Z" fill="#F7E7EF"/>
<path d="M38.2039 18.8212C38.3734 18.9225 38.5761 18.9527 38.7678 18.9051C38.9595 18.8575 39.1246 18.736 39.227 18.5672L40.5465 16.5068C40.5974 16.4234 40.6315 16.3308 40.6467 16.2343C40.6618 16.1377 40.6578 16.0391 40.6349 15.9441C40.612 15.8491 40.5705 15.7596 40.513 15.6806C40.4555 15.6016 40.3829 15.5347 40.2995 15.4837C40.2161 15.4327 40.1235 15.3987 40.027 15.3835C39.9304 15.3684 39.8318 15.3724 39.7368 15.3953C39.6418 15.4182 39.5523 15.4596 39.4733 15.5172C39.3943 15.5747 39.3274 15.6473 39.2764 15.7307L37.9499 17.8051C37.8949 17.8871 37.8576 17.9797 37.8406 18.0769C37.8236 18.1741 37.8272 18.2738 37.8511 18.3696C37.8751 18.4653 37.9188 18.555 37.9796 18.6328C38.0404 18.7106 38.1168 18.7748 38.2039 18.8212Z" fill="#F04D7F"/>
<path d="M32.561 16.3943C32.6569 16.4138 32.7558 16.4141 32.8518 16.3951C32.9479 16.3762 33.0392 16.3384 33.1206 16.2839C33.202 16.2295 33.2717 16.1594 33.3258 16.0779C33.38 15.9963 33.4174 15.9048 33.4359 15.8087L33.8099 13.7554C33.8302 13.656 33.83 13.5535 33.8095 13.4542C33.7889 13.3549 33.7483 13.2607 33.6903 13.1776C33.6322 13.0944 33.5578 13.0239 33.4716 12.9704C33.3854 12.9169 33.2893 12.8815 33.189 12.8663C32.9944 12.8313 32.7939 12.8747 32.6313 12.9871C32.4687 13.0995 32.3571 13.2717 32.3211 13.4661L31.9542 15.5264C31.9359 15.6234 31.9372 15.723 31.958 15.8194C31.9788 15.9158 32.0186 16.0071 32.0751 16.088C32.1316 16.1688 32.2037 16.2375 32.2872 16.2901C32.3706 16.3428 32.4637 16.3782 32.561 16.3943Z" fill="#D653B9"/>
<path d="M48.605 35.0501L46.1919 34.6197C46.0052 34.6044 45.8197 34.6604 45.6726 34.7764C45.5256 34.8924 45.4279 35.0598 45.3993 35.2449C45.3707 35.43 45.4133 35.619 45.5184 35.774C45.6236 35.929 45.7835 36.0384 45.9661 36.0802L48.3792 36.5177H48.5062C48.6912 36.5152 48.8686 36.4442 49.0043 36.3186C49.14 36.1929 49.2243 36.0214 49.2409 35.8372C49.2576 35.6531 49.2054 35.4692 49.0945 35.3212C48.9836 35.1733 48.8218 35.0716 48.6403 35.036L48.605 35.0501Z" fill="#F04D7F"/>
<path d="M46.1001 29.4973L48.4991 28.9752C48.6481 28.8976 48.7666 28.772 48.8356 28.6187C48.9045 28.4655 48.9198 28.2935 48.8791 28.1305C48.8383 27.9675 48.7439 27.8229 48.6109 27.7202C48.478 27.6174 48.3143 27.5624 48.1463 27.564L45.7473 28.0861C45.5545 28.1282 45.3864 28.2452 45.2799 28.4113C45.1733 28.5773 45.1371 28.7789 45.1793 28.9717C45.2214 29.1644 45.3383 29.3325 45.5044 29.4391C45.6704 29.5456 45.872 29.5818 46.0648 29.5397L46.1001 29.4973Z" fill="#D653B9"/>
<path d="M32.0161 34.7397C31.8963 34.5816 31.7186 34.4775 31.5221 34.4504C31.3256 34.4233 31.1264 34.4753 30.9682 34.5951C30.8101 34.7148 30.706 34.8925 30.6789 35.089C30.6518 35.2855 30.7038 35.4848 30.8236 35.6429L32.0161 37.3575C32.1302 37.5231 32.3055 37.6366 32.5033 37.673C32.7011 37.7094 32.9053 37.6657 33.0709 37.5515C33.2365 37.4374 33.35 37.2621 33.3864 37.0643C33.4228 36.8665 33.3791 36.6623 33.265 36.4967L32.0725 34.775C32.0524 34.7653 32.0335 34.7535 32.0161 34.7397Z" fill="#F7E7EF"/>
<path d="M26.9159 27.338L26.8806 27.2886C26.8218 27.2108 26.7482 27.1453 26.664 27.0959C26.5799 27.0465 26.4868 27.0142 26.3902 27.0007C26.2936 26.9873 26.1952 26.993 26.1008 27.0176C26.0064 27.0422 25.9177 27.0851 25.8399 27.144C25.762 27.2028 25.6965 27.2764 25.6472 27.3605C25.5978 27.4447 25.5654 27.5377 25.552 27.6344C25.5386 27.731 25.5443 27.8294 25.5689 27.9238C25.5934 28.0182 25.6364 28.1069 25.6952 28.1847L26.8877 29.8993V29.9487C26.9432 30.0354 27.016 30.1098 27.1015 30.1671C27.1871 30.2243 27.2835 30.2634 27.3848 30.2816C27.4862 30.2999 27.5902 30.2971 27.6903 30.2733C27.7905 30.2496 27.8847 30.2054 27.967 30.1435C28.0493 30.0817 28.118 30.0035 28.1687 29.9139C28.2194 29.8243 28.251 29.7252 28.2616 29.6227C28.2723 29.5203 28.2616 29.4168 28.2304 29.3187C28.1992 29.2206 28.148 29.13 28.0801 29.0526L26.9159 27.338Z" fill="#F7E7EF"/>
<path d="M31.9394 30.8166C31.9911 30.9007 32.0599 30.9731 32.1413 31.0289C32.2227 31.0848 32.315 31.1229 32.4121 31.1409C32.5092 31.1588 32.609 31.1562 32.705 31.1332C32.801 31.1101 32.8911 31.0672 32.9695 31.0071L34.6771 29.8006C34.8345 29.6852 34.9407 29.5129 34.9729 29.3204C35.005 29.1279 34.9606 28.9304 34.8492 28.7701C34.7378 28.6099 34.5681 28.4996 34.3764 28.4627C34.1847 28.4258 33.9862 28.4653 33.8233 28.5728L32.1228 29.8006C32.0413 29.8529 31.9715 29.9215 31.9177 30.0021C31.8639 30.0826 31.8273 30.1734 31.8101 30.2687C31.7928 30.364 31.7954 30.4618 31.8177 30.5561C31.8399 30.6504 31.8813 30.7391 31.9394 30.8166Z" fill="#F7E7EF"/>
<path d="M25.1448 16.0345C25.1955 16.2183 25.3145 16.3758 25.4774 16.4748C25.6403 16.5739 25.8349 16.607 26.0214 16.5673C26.2079 16.5277 26.3722 16.4183 26.4808 16.2616C26.5893 16.1048 26.6339 15.9125 26.6054 15.724L26.0833 13.325C26.0348 13.1379 25.9158 12.9769 25.7512 12.8756C25.5866 12.7743 25.3892 12.7407 25.2004 12.7817C25.0115 12.8228 24.8459 12.9353 24.7382 13.0958C24.6305 13.2563 24.5891 13.4522 24.6227 13.6425L25.1448 16.0345Z" fill="#F04D7F"/>
<path d="M12.9947 28.6365L10.5815 28.199C10.4851 28.1818 10.3863 28.1839 10.2906 28.2051C10.195 28.2264 10.1046 28.2664 10.0245 28.3228C9.94448 28.3793 9.87641 28.451 9.82426 28.5339C9.77211 28.6168 9.73692 28.7092 9.72072 28.8058C9.70344 28.9018 9.70526 29.0001 9.72607 29.0954C9.74687 29.1906 9.78626 29.2807 9.84198 29.3607C9.89769 29.4407 9.96863 29.5089 10.0507 29.5614C10.1329 29.6139 10.2245 29.6496 10.3205 29.6667L12.7336 30.0971C12.83 30.1196 12.93 30.1216 13.0271 30.103C13.1243 30.0844 13.2165 30.0455 13.2976 29.989C13.3788 29.9324 13.4472 29.8594 13.4983 29.7747C13.5495 29.69 13.5822 29.5955 13.5945 29.4973C13.617 29.401 13.619 29.301 13.6004 29.2038C13.5817 29.1067 13.5429 29.0145 13.4863 28.9333C13.4298 28.8521 13.3568 28.7838 13.2721 28.7326C13.1874 28.6815 13.0929 28.6487 12.9947 28.6365Z" fill="#D653B9"/>
<path d="M26.5271 33.6672L24.7984 34.8597C24.6387 34.9746 24.5302 35.1473 24.4959 35.341C24.4617 35.5347 24.5044 35.7342 24.615 35.8969C24.7276 36.0592 24.8999 36.1704 25.0943 36.2061C25.2886 36.2417 25.4892 36.1991 25.6522 36.0874L27.3668 34.8949C27.5131 34.7763 27.6093 34.6069 27.6362 34.4204C27.663 34.234 27.6185 34.0443 27.5116 33.8892C27.4046 33.7342 27.2431 33.6252 27.0593 33.584C26.8755 33.5428 26.6829 33.5725 26.5201 33.6672H26.5271Z" fill="#F7E7EF"/>
</g>
<defs>
<clipPath id="clip0_7019_13255">
<rect width="64" height="46" fill="white"/>
</clipPath>
</defs>
</svg>
