<svg width="76" height="64" viewBox="0 0 76 64" fill="none" xmlns="http://www.w3.org/2000/svg">
<g clip-path="url(#clip0_7045_15561)">
<path d="M71.6828 53.0112H69.3267V27.0946H69.289C71.139 25.7155 72.6385 23.9205 73.6667 21.8549C74.6948 19.7892 75.2227 17.5106 75.2076 15.2032C75.1926 12.8959 74.635 10.6244 73.58 8.57231C72.5249 6.52022 71.002 4.74505 69.1343 3.3902C67.2665 2.03535 65.1063 1.1388 62.828 0.772987C60.5498 0.407172 58.2175 0.582345 56.0195 1.28436C53.8214 1.98636 51.8193 3.19553 50.1749 4.81417C48.5305 6.43281 47.2898 8.41554 46.5531 10.6022H5.71329C5.40086 10.6022 5.10123 10.7263 4.8803 10.9472C4.65938 11.1682 4.53527 11.4678 4.53527 11.7802V53.0112H2.17921C1.86678 53.0112 1.56714 53.1353 1.34622 53.3562C1.1253 53.5771 1.00119 53.8768 1.00119 54.1892C0.937733 56.6177 1.83854 58.9724 3.50661 60.7385C5.17467 62.5046 7.47423 63.5382 9.90236 63.6134H63.9597C66.3878 63.5382 68.6873 62.5046 70.3554 60.7385C72.0235 58.9724 72.9243 56.6177 72.8608 54.1892C72.8608 53.8768 72.7367 53.5771 72.5158 53.3562C72.2949 53.1353 71.9952 53.0112 71.6828 53.0112ZM60.4915 2.94502C62.938 2.94502 65.3294 3.67047 67.3635 5.02962C69.3977 6.38878 70.9831 8.32059 71.9193 10.5808C72.8555 12.841 73.1004 15.328 72.6232 17.7274C72.1459 20.1268 70.9678 22.3308 69.2379 24.0607C67.5081 25.7906 65.3041 26.9686 62.9047 27.4459C60.5053 27.9232 58.0182 27.6782 55.758 26.742C53.4978 25.8058 51.566 24.2204 50.2069 22.1863C48.8477 20.1522 48.1223 17.7607 48.1223 15.3143C48.126 12.0349 49.4304 8.89091 51.7493 6.57203C54.0682 4.25315 57.2122 2.94876 60.4915 2.94502ZM45.8263 16.4923C45.9917 18.5691 46.5962 20.587 47.5998 22.4127C48.6034 24.2384 49.9832 25.8302 51.6479 27.0828C53.3127 28.3353 55.2244 29.2202 57.2566 29.6787C59.2889 30.1373 61.3953 30.1591 63.4366 29.7428V49.4771H10.4254V16.4923H45.8263ZM6.89132 12.9583H45.9724C45.9099 13.347 45.8546 13.7381 45.8263 14.1363H9.24737C8.93494 14.1363 8.63531 14.2604 8.41438 14.4813C8.19346 14.7022 8.06935 15.0019 8.06935 15.3143V50.6551C8.06935 50.9675 8.19346 51.2672 8.41438 51.4881C8.63531 51.709 8.93494 51.8331 9.24737 51.8331H64.6146C64.9271 51.8331 65.2267 51.709 65.4476 51.4881C65.6685 51.2672 65.7927 50.9675 65.7927 50.6551V29.036C66.194 28.8789 66.5867 28.7061 66.9707 28.5176V53.0112H42.8211C42.5087 53.0112 42.2091 53.1353 41.9881 53.3562C41.7672 53.5771 41.6431 53.8768 41.6431 54.1892C41.6431 54.8141 41.3949 55.4133 40.953 55.8552C40.5112 56.297 39.9119 56.5452 39.2871 56.5452H34.575C33.9501 56.5452 33.3508 56.297 32.909 55.8552C32.4671 55.4133 32.2189 54.8141 32.2189 54.1892C32.2189 53.8768 32.0948 53.5771 31.8739 53.3562C31.6529 53.1353 31.3533 53.0112 31.0409 53.0112H6.89132V12.9583ZM63.9597 61.2574H9.90236C8.30139 61.2049 6.7717 60.5828 5.5885 59.503C4.4053 58.4233 3.64626 56.9567 3.44795 55.3672H30.0113C30.274 56.3781 30.8644 57.2734 31.6902 57.9128C32.516 58.5523 33.5305 58.9 34.575 58.9013H39.2871C40.3315 58.9 41.346 58.5523 42.1718 57.9128C42.9976 57.2734 43.5881 56.3781 43.8507 55.3672H70.4141C70.2157 56.9567 69.4567 58.4233 68.2735 59.503C67.0903 60.5828 65.5606 61.2049 63.9597 61.2574Z" fill="#F7E7EF"/>
<path d="M16.3145 24.7388V42.4092C16.3145 42.7216 16.4386 43.0212 16.6595 43.2422C16.8804 43.4631 17.18 43.5872 17.4925 43.5872H45.7651C46.0776 43.5872 46.3772 43.4631 46.5981 43.2422C46.819 43.0212 46.9432 42.7216 46.9432 42.4092V24.7388C46.9432 24.4263 46.819 24.1267 46.5981 23.9058C46.3772 23.6849 46.0776 23.5607 45.7651 23.5607H38.9762L37.6686 20.6157C37.4334 20.0896 37.051 19.6427 36.5675 19.3292C36.084 19.0156 35.52 18.8487 34.9438 18.8486H26.8154C26.239 18.8489 25.675 19.0159 25.1914 19.3294C24.7077 19.643 24.325 20.0896 24.0894 20.6157L22.7854 23.5607H17.4925C17.18 23.5607 16.8804 23.6849 16.6595 23.9058C16.4386 24.1267 16.3145 24.4263 16.3145 24.7388ZM18.6705 30.6289C19.2954 30.6289 19.8946 30.8771 20.3365 31.319C20.7783 31.7608 21.0266 32.3601 21.0266 32.985V34.163C21.0266 34.7878 20.7783 35.3871 20.3365 35.829C19.8946 36.2708 19.2954 36.519 18.6705 36.519V30.6289ZM44.5871 36.519C43.9622 36.519 43.363 36.2708 42.9211 35.829C42.4793 35.3871 42.231 34.7878 42.231 34.163V32.985C42.231 32.3601 42.4793 31.7608 42.9211 31.319C43.363 30.8771 43.9622 30.6289 44.5871 30.6289V36.519ZM18.6705 25.9168H23.5511C23.779 25.9168 24.002 25.8507 24.1932 25.7265C24.3843 25.6023 24.5352 25.4253 24.6278 25.217L26.2452 21.5769C26.2945 21.466 26.375 21.3717 26.4768 21.3057C26.5787 21.2396 26.6975 21.2045 26.8189 21.2047H34.9473C35.0685 21.2047 35.1871 21.2399 35.2887 21.306C35.3903 21.3721 35.4706 21.4662 35.5198 21.5769L37.1384 25.217C37.2309 25.4252 37.3817 25.602 37.5726 25.7262C37.7635 25.8504 37.9862 25.9166 38.214 25.9168H44.5871V28.2728C43.3374 28.2728 42.1388 28.7693 41.2551 29.653C40.3714 30.5367 39.875 31.7352 39.875 32.985V34.163C39.875 35.4127 40.3714 36.6113 41.2551 37.4949C42.1388 38.3786 43.3374 38.8751 44.5871 38.8751V41.2311H18.6705V38.8751C19.9202 38.8751 21.1188 38.3786 22.0025 37.4949C22.8862 36.6113 23.3826 35.4127 23.3826 34.163V32.985C23.3826 31.7352 22.8862 30.5367 22.0025 29.653C21.1188 28.7693 19.9202 28.2728 18.6705 28.2728V25.9168Z" fill="#F7E7EF"/>
<path d="M31.6287 40.0528C33.0267 40.0528 34.3932 39.6383 35.5556 38.8616C36.7179 38.085 37.6239 36.9811 38.1588 35.6895C38.6938 34.398 38.8338 32.9768 38.5611 31.6057C38.2883 30.2347 37.6152 28.9752 36.6267 27.9867C35.6382 26.9982 34.3787 26.325 33.0076 26.0523C31.6365 25.7796 30.2154 25.9196 28.9238 26.4545C27.6323 26.9895 26.5284 27.8955 25.7517 29.0578C24.9751 30.2202 24.5605 31.5867 24.5605 32.9847C24.5624 34.8587 25.3077 36.6554 26.6328 37.9805C27.958 39.3057 29.7547 40.051 31.6287 40.0528ZM31.6287 28.2726C32.5607 28.2726 33.4717 28.5489 34.2466 29.0667C35.0215 29.5845 35.6255 30.3204 35.9821 31.1814C36.3388 32.0425 36.4321 32.9899 36.2503 33.904C36.0685 34.818 35.6197 35.6576 34.9607 36.3166C34.3017 36.9756 33.4621 37.4244 32.548 37.6062C31.6339 37.7881 30.6865 37.6947 29.8255 37.3381C28.9644 36.9814 28.2285 36.3775 27.7107 35.6026C27.193 34.8277 26.9166 33.9166 26.9166 32.9847C26.9166 31.7349 27.4131 30.5364 28.2967 29.6527C29.1804 28.769 30.379 28.2726 31.6287 28.2726Z" fill="#F7E7EF"/>
<path d="M13.9596 20.0265H17.4937V17.6704H12.7815C12.4691 17.6704 12.1695 17.7945 11.9486 18.0154C11.7276 18.2364 11.6035 18.536 11.6035 18.8484V23.5605H13.9596V20.0265Z" fill="#F7E7EF"/>
<path d="M45.7656 48.2993H50.4777C50.7902 48.2993 51.0898 48.1752 51.3107 47.9543C51.5316 47.7334 51.6558 47.4337 51.6558 47.1213V42.4092H49.2997V45.9433H45.7656V48.2993Z" fill="#F7E7EF"/>
<path d="M53.1287 15.314H56.3682V24.7382C56.3682 25.0506 56.4923 25.3503 56.7133 25.5712C56.9342 25.7921 57.2338 25.9162 57.5463 25.9162H63.4364C63.7488 25.9162 64.0485 25.7921 64.2694 25.5712C64.4903 25.3503 64.6144 25.0506 64.6144 24.7382V15.314H67.854C68.0863 15.3146 68.3136 15.2466 68.5073 15.1185C68.701 14.9903 68.8525 14.8078 68.9428 14.5937C69.0331 14.3797 69.0581 14.1438 69.0146 13.9156C68.9712 13.6874 68.8612 13.4772 68.6986 13.3113L61.336 5.73779C61.1095 5.51856 60.8066 5.396 60.4913 5.396C60.1761 5.396 59.8732 5.51856 59.6467 5.73779L52.284 13.3113C52.1214 13.4772 52.0115 13.6874 51.9681 13.9156C51.9246 14.1438 51.9496 14.3797 52.0399 14.5937C52.1301 14.8078 52.2816 14.9903 52.4754 15.1185C52.6691 15.2466 52.8964 15.3146 53.1287 15.314ZM60.4913 8.25288L65.0656 12.9579H63.4364C63.124 12.9579 62.8243 13.082 62.6034 13.303C62.3825 13.5239 62.2584 13.8235 62.2584 14.1359V23.5602H58.7243V14.1359C58.7243 13.8235 58.6002 13.5239 58.3793 13.303C58.1583 13.082 57.8587 12.9579 57.5463 12.9579H55.9171L60.4913 8.25288Z" fill="#F7E7EF"/>
<path d="M62.2579 32.9849H54.0117V35.3409H62.2579V32.9849Z" fill="#F7E7EF"/>
<path d="M62.2579 37.6968H54.0117V40.0528H62.2579V37.6968Z" fill="#F7E7EF"/>
<path d="M62.2579 42.4092H54.0117V44.7652H62.2579V42.4092Z" fill="#F7E7EF"/>
</g>
<defs>
<clipPath id="clip0_7045_15561">
<rect width="76" height="64" fill="white"/>
</clipPath>
</defs>
</svg>
