<svg width="46" height="45" viewBox="0 0 46 45" fill="none" xmlns="http://www.w3.org/2000/svg">
<g clip-path="url(#clip0_7028_14398)">
<path d="M27.5357 13.4187V18.7596C13.5282 23.9133 17.0392 44.4246 31.9801 44.6654C46.9229 44.4228 50.4282 23.9119 36.4246 18.7596V13.4187C38.7412 12.5891 38.1727 9.13351 35.6838 9.11133H28.2764C25.7912 9.13355 25.2172 12.5891 27.5357 13.4187ZM43.832 31.3316C43.832 37.8667 38.5152 43.1835 31.9801 43.1835C18.4282 42.9372 15.5985 24.1892 28.4949 20.0022C28.806 19.9059 29.0172 19.6189 29.0172 19.2948V13.5542H34.9431V19.2948C34.9431 19.6207 35.156 19.9077 35.4653 20.0022C40.4692 21.5392 43.832 26.0931 43.832 31.3316ZM28.2766 10.5909H35.6841C36.6544 10.6075 36.66 12.0557 35.6841 12.0723H28.2766C27.3063 12.0557 27.3007 10.6076 28.2766 10.5909Z" fill="#F7E7EF"/>
<path d="M32.3716 32.5296C28.8456 30.824 23.9994 28.7962 21.1289 32.3888C22.8382 48.9317 47.879 43.1167 42.329 27.3167C42.2994 27.0741 42.1624 26.85 41.9253 26.7371C39.7142 25.7111 36.9622 26.0704 35.1214 27.6352C33.5436 28.5907 32.5585 30.3797 32.3696 32.5295L32.3716 32.5296ZM40.9883 27.9592C43.418 34.0629 38.5606 41.0868 31.9771 40.9612C27.3364 40.9612 23.3329 37.5834 22.5142 33.0536C26.5642 29.4499 31.7866 35.2073 36.0921 34.9073C39.9347 35.224 43.3829 30.1424 39.5866 27.6554C40.0699 27.6869 40.5421 27.787 40.9883 27.9592ZM35.8736 28.9111C37.681 27.8092 40.5736 29.1611 39.5328 31.4074C38.4569 33.5925 36.2162 33.7629 33.8274 33.0555C33.8681 31.5981 34.4421 29.7629 35.8736 28.9111Z" fill="#F7E7EF"/>
<path d="M4.35702 44.6647H24.179C25.1475 44.6462 25.1586 43.2018 24.179 43.1832H4.35702C2.84221 43.2369 1.82366 41.3869 2.69221 40.1388L14.8257 21.1834C14.9016 21.0649 14.9423 20.926 14.9423 20.7834V13.5538H20.8682V20.7241C20.8682 21.1334 21.1997 21.4649 21.609 21.4649C22.0182 21.4649 22.3497 21.1334 22.3497 20.7241V13.4168C24.6664 12.5871 24.0979 9.13156 21.609 9.10938H14.2016C11.7164 9.1316 11.1423 12.5871 13.4608 13.4168V20.5667L1.44591 39.3391C-0.0688976 41.5188 1.70518 44.7614 4.35702 44.6647ZM14.2016 10.5906H21.609C22.5794 10.6073 22.585 12.0554 21.609 12.0721H14.2016C13.2313 12.0555 13.2257 10.6073 14.2016 10.5906Z" fill="#F7E7EF"/>
<path d="M9.75777 20.961C12.6874 20.8851 12.6874 16.5925 9.75777 16.5166C6.82814 16.5925 6.82814 20.8851 9.75777 20.961ZM9.75777 17.9981C10.7319 18.0147 10.7319 19.4629 9.75777 19.4796C8.78369 19.4629 8.78369 18.0148 9.75777 17.9981Z" fill="#F7E7EF"/>
<path d="M13.4609 7.62755C16.3905 7.55162 16.3905 3.25905 13.4609 3.18311C10.5313 3.25903 10.5313 7.5516 13.4609 7.62755ZM13.4609 4.66459C14.435 4.68125 14.435 6.12938 13.4609 6.14607C12.4868 6.1294 12.4868 4.68127 13.4609 4.66459Z" fill="#F7E7EF"/>
<path d="M26.0527 8.36876C28.9823 8.29283 28.9823 4.00026 26.0527 3.92432C23.1231 4.00024 23.1231 8.29281 26.0527 8.36876ZM26.0527 5.4058C27.0268 5.42246 27.0268 6.87059 26.0527 6.88728C25.0786 6.87061 25.0786 5.42249 26.0527 5.4058Z" fill="#F7E7EF"/>
<path d="M34.2011 4.66466C37.1308 4.58873 37.1308 0.296162 34.2011 0.220215C31.2715 0.296143 31.2715 4.58871 34.2011 4.66466ZM34.2011 1.7017C35.1752 1.71836 35.1752 3.16649 34.2011 3.18318C33.2271 3.16651 33.2271 1.71838 34.2011 1.7017Z" fill="#F7E7EF"/>
<path d="M40.8691 15.0353C43.7987 14.9593 43.7987 10.6668 40.8691 10.5908C37.9395 10.6667 37.9395 14.9593 40.8691 15.0353ZM40.8691 12.0723C41.8432 12.089 41.8432 13.5371 40.8691 13.5538C39.895 13.5371 39.895 12.089 40.8691 12.0723Z" fill="#F7E7EF"/>
<path d="M11.9804 40.2203C14.9101 40.1444 14.9101 35.8518 11.9804 35.7759C9.05079 35.8518 9.05079 40.1444 11.9804 40.2203ZM11.9804 38.7388C11.0063 38.7222 11.0063 37.274 11.9804 37.2574C12.9545 37.274 12.9545 38.7222 11.9804 38.7388Z" fill="#F7E7EF"/>
<path d="M27.1318 32.8799C23.7503 32.9873 23.7503 37.8908 27.1318 37.9985C30.5133 37.8911 30.5133 32.9875 27.1318 32.8799ZM27.1318 36.5169C25.7151 36.491 25.7151 34.3873 27.1318 34.3614C28.5485 34.3873 28.5485 36.491 27.1318 36.5169Z" fill="#F7E7EF"/>
<path d="M30.498 29.8497C33.4276 29.7738 33.4276 25.4812 30.498 25.4053C27.5684 25.4812 27.5684 29.7738 30.498 29.8497ZM30.498 26.8868C31.4721 26.9034 31.4721 28.3515 30.498 28.3682C29.5239 28.3516 29.5239 26.9034 30.498 26.8868Z" fill="#F7E7EF"/>
<path d="M17.7237 28.8911C16.3867 28.0504 15.6089 31.1967 15.5164 32.2282C13.7978 31.4986 12.1349 30.5393 10.1958 30.3634C9.93657 30.3708 9.70137 30.4875 9.54213 30.693L3.21988 40.1821C2.55508 41.0932 3.29765 42.4821 4.4236 42.4432H21.4087C22.3773 42.4247 22.3883 40.9802 21.4087 40.9617L4.44778 41.0098L10.5183 31.8967C12.709 32.2912 15.0183 33.9208 17.1885 34.3467C17.5793 34.4319 17.983 34.1782 18.0663 33.7745C18.1996 33.0412 17.5219 32.8819 16.9552 32.7579C16.9941 31.6764 17.3144 30.6505 17.8645 29.9282C18.1126 29.6023 18.0478 29.1375 17.7219 28.8893L17.7237 28.8911Z" fill="#F7E7EF"/>
<path d="M33.0976 35.7759C30.168 35.8518 30.168 40.1444 33.0976 40.2203C36.0273 40.1444 36.0273 35.8518 33.0976 35.7759ZM33.0976 38.7388C32.1235 38.7222 32.1235 37.274 33.0976 37.2574C34.0717 37.274 34.0717 38.7222 33.0976 38.7388Z" fill="#F7E7EF"/>
</g>
<defs>
<clipPath id="clip0_7028_14398">
<rect width="46" height="45" fill="white"/>
</clipPath>
</defs>
</svg>
