<svg width="67" height="65" viewBox="0 0 67 65" fill="none" xmlns="http://www.w3.org/2000/svg">
<g clip-path="url(#clip0_7019_13216)">
<path d="M0.740234 64.0171C0.740234 64.2117 0.817525 64.3983 0.955103 64.5359C1.09268 64.6735 1.27928 64.7507 1.47384 64.7507H66.0311C66.2257 64.7507 66.4123 64.6735 66.5499 64.5359C66.6874 64.3983 66.7647 64.2117 66.7647 64.0171C66.7647 63.8226 66.6874 63.636 66.5499 63.4984C66.4123 63.3608 66.2257 63.2835 66.0311 63.2835H64.8133V37.3506C64.8133 36.4607 64.4603 35.6072 63.8318 34.9774C63.2033 34.3475 62.3506 33.9926 61.4608 33.9907H56.4942V31.1076C56.5299 28.0376 55.397 25.0689 53.3251 22.8032C51.3515 20.6968 48.6243 19.4572 45.7396 19.3552V16.0614C45.7396 15.047 45.3371 14.0741 44.6206 13.3561C43.904 12.6382 42.9319 12.2339 41.9175 12.2319H27.15C26.1344 12.2319 25.1604 12.6354 24.4422 13.3535C23.7241 14.0717 23.3206 15.0457 23.3206 16.0614V22.5024C22.002 21.9784 20.5946 21.7143 19.1757 21.7248H14.2092C13.575 21.7248 12.9666 21.9768 12.5181 22.4253C12.0696 22.8738 11.8177 23.4821 11.8177 24.1163V28.4079H5.47199C4.69373 28.4079 3.94735 28.7171 3.39704 29.2674C2.84673 29.8177 2.53757 30.5641 2.53757 31.3424V63.2835H1.47384C1.27928 63.2835 1.09268 63.3608 0.955103 63.4984C0.817525 63.636 0.740234 63.8226 0.740234 64.0171ZM11.8177 29.8678V63.2835H4.03412V57.7668C4.08293 57.9113 4.17558 58.0371 4.29918 58.1265C4.42278 58.2159 4.57117 58.2645 4.72371 58.2657H8.69985C8.89442 58.2657 9.08101 58.1884 9.21859 58.0508C9.35617 57.9132 9.43346 57.7266 9.43346 57.5321C9.43346 57.3375 9.35617 57.1509 9.21859 57.0133C9.08101 56.8757 8.89442 56.7985 8.69985 56.7985H4.72371C4.57117 56.7996 4.42278 56.8482 4.29918 56.9377C4.17558 57.0271 4.08293 57.1528 4.03412 57.2973V53.7026H7.26932C7.46389 53.7026 7.65048 53.6254 7.78806 53.4878C7.92564 53.3502 8.00293 53.1636 8.00293 52.969C8.00293 52.7745 7.92564 52.5879 7.78806 52.4503C7.65048 52.3127 7.46389 52.2354 7.26932 52.2354H4.03412V49.1396H7.26932C7.46389 49.1396 7.65048 49.0623 7.78806 48.9248C7.92564 48.7872 8.00293 48.6006 8.00293 48.406C8.00293 48.2115 7.92564 48.0249 7.78806 47.8873C7.65048 47.7497 7.46389 47.6724 7.26932 47.6724H4.03412V44.5839H7.26932C7.46389 44.5839 7.65048 44.5066 7.78806 44.3691C7.92564 44.2315 8.00293 44.0449 8.00293 43.8503C8.00293 43.6558 7.92564 43.4692 7.78806 43.3316C7.65048 43.194 7.46389 43.1167 7.26932 43.1167H4.03412V40.0209H7.26932C7.46389 40.0209 7.65048 39.9436 7.78806 39.806C7.92564 39.6685 8.00293 39.4819 8.00293 39.2873C8.00293 39.0927 7.92564 38.9061 7.78806 38.7686C7.65048 38.631 7.46389 38.5537 7.26932 38.5537H4.03412V35.4652H7.26932C7.46389 35.4652 7.65048 35.3879 7.78806 35.2503C7.92564 35.1128 8.00293 34.9262 8.00293 34.7316C8.00293 34.537 7.92564 34.3504 7.78806 34.2129C7.65048 34.0753 7.46389 33.998 7.26932 33.998H4.03412V31.3057C4.03412 30.9165 4.1887 30.5434 4.46386 30.2682C4.73901 29.993 5.1122 29.8385 5.50133 29.8385L11.8177 29.8678ZM44.2944 16.0614V63.2835H40.9932V18.1008C40.9932 17.9062 40.9159 17.7196 40.7783 17.582C40.6407 17.4445 40.4541 17.3672 40.2596 17.3672C40.065 17.3672 39.8784 17.4445 39.7408 17.582C39.6032 17.7196 39.526 17.9062 39.526 18.1008V63.2835H35.271V18.1008C35.271 17.9062 35.1937 17.7196 35.0562 17.582C34.9186 17.4445 34.732 17.3672 34.5374 17.3672C34.3429 17.3672 34.1563 17.4445 34.0187 17.582C33.8811 17.7196 33.8038 17.9062 33.8038 18.1008V63.2835H30.3779V32.9123C30.3806 31.4419 30.0914 29.9857 29.5269 28.628C29.534 28.5695 29.534 28.5104 29.5269 28.4519V18.1008C29.5269 17.9062 29.4496 17.7196 29.312 17.582C29.1745 17.4445 28.9879 17.3672 28.7933 17.3672C28.5987 17.3672 28.4121 17.4445 28.2746 17.582C28.137 17.7196 28.0597 17.9062 28.0597 18.1008V26.1264C27.1652 24.9386 26.043 23.941 24.7585 23.192V16.0614C24.7584 15.749 24.8205 15.4398 24.9412 15.1516C25.0618 14.8635 25.2385 14.6023 25.4611 14.3831C25.6837 14.1639 25.9476 13.9913 26.2376 13.8751C26.5275 13.7589 26.8377 13.7016 27.15 13.7065H41.9395C42.5641 13.7065 43.163 13.9546 43.6047 14.3962C44.0463 14.8378 44.2944 15.4368 44.2944 16.0614ZM63.3681 37.3359V38.8618H51.9092V37.3506C51.9092 36.8505 52.1078 36.371 52.4614 36.0174C52.815 35.6639 53.2945 35.4652 53.7946 35.4652H61.4608C61.9602 35.4671 62.4386 35.6664 62.7918 36.0196C63.1449 36.3727 63.3442 36.8511 63.3461 37.3506L63.3681 37.3359ZM63.3681 42.4711H51.9092V40.351H63.3461L63.3681 42.4711ZM63.3681 43.9384V46.8728H51.9092V43.9384H63.3681ZM63.3681 58.5664H51.9092V56.4537H63.3461L63.3681 58.5664ZM51.9092 54.9791V51.9933H63.3461V54.9791H51.9092ZM63.3461 50.5188H51.9092V48.3693H63.3461V50.5188ZM63.3461 63.1515H51.9092V60.0703H63.3461V63.1515ZM50.4347 37.3506V63.2835H45.7616V20.8225C51.0876 21.0792 55.027 25.3928 55.027 31.1076V33.9907H53.7799C52.8913 33.9945 52.0405 34.3503 51.4136 34.9799C50.7866 35.6096 50.4347 36.462 50.4347 37.3506ZM13.2922 63.2835V24.1017C13.2942 23.8597 13.3916 23.6284 13.5634 23.458C13.7352 23.2876 13.9673 23.192 14.2092 23.192H19.1757C21.7545 23.1939 24.2272 24.2182 26.0521 26.0402C27.8769 27.8623 28.9049 30.3335 28.9107 32.9123V63.2835H13.2922Z" fill="#F7E7EF"/>
<path d="M16.4973 28.7017C16.6918 28.7017 16.8784 28.7789 17.016 28.9165C17.1536 29.0541 17.2309 29.2407 17.2309 29.4353V30.8585C17.2309 31.053 17.1536 31.2396 17.016 31.3772C16.8784 31.5148 16.6918 31.5921 16.4973 31.5921C16.3027 31.5921 16.1161 31.5148 15.9785 31.3772C15.841 31.2396 15.7637 31.053 15.7637 30.8585V29.4353C15.7637 29.2407 15.841 29.0541 15.9785 28.9165C16.1161 28.7789 16.3027 28.7017 16.4973 28.7017Z" fill="#F7E7EF"/>
<path d="M16.4973 34.3867C16.6918 34.3867 16.8784 34.464 17.016 34.6016C17.1536 34.7392 17.2309 34.9258 17.2309 35.1203V36.5435C17.2309 36.7381 17.1536 36.9247 17.016 37.0623C16.8784 37.1998 16.6918 37.2771 16.4973 37.2771C16.3027 37.2771 16.1161 37.1998 15.9785 37.0623C15.841 36.9247 15.7637 36.7381 15.7637 36.5435V35.1203C15.7637 34.9258 15.841 34.7392 15.9785 34.6016C16.1161 34.464 16.3027 34.3867 16.4973 34.3867Z" fill="#F7E7EF"/>
<path d="M16.4973 40.1089C16.6918 40.1089 16.8784 40.1862 17.016 40.3238C17.1536 40.4613 17.2309 40.6479 17.2309 40.8425V42.2584C17.2309 42.4529 17.1536 42.6395 17.016 42.7771C16.8784 42.9147 16.6918 42.992 16.4973 42.992C16.3027 42.992 16.1161 42.9147 15.9785 42.7771C15.841 42.6395 15.7637 42.4529 15.7637 42.2584V40.8425C15.7637 40.6479 15.841 40.4613 15.9785 40.3238C16.1161 40.1862 16.3027 40.1089 16.4973 40.1089Z" fill="#F7E7EF"/>
<path d="M16.4973 45.7578C16.6919 45.7578 16.8785 45.8351 17.0161 45.9727C17.1536 46.1103 17.2309 46.2969 17.2309 46.4914V47.9073C17.2309 48.1018 17.1536 48.2884 17.0161 48.426C16.8785 48.5636 16.6919 48.6409 16.4973 48.6409C16.3027 48.6409 16.1162 48.5636 15.9786 48.426C15.841 48.2884 15.7637 48.1018 15.7637 47.9073V46.4988C15.7627 46.4018 15.781 46.3056 15.8174 46.2158C15.8539 46.1259 15.9077 46.0442 15.976 45.9753C16.0442 45.9064 16.1254 45.8517 16.2149 45.8144C16.3044 45.777 16.4004 45.7578 16.4973 45.7578Z" fill="#F7E7EF"/>
<path d="M16.4973 51.4434C16.6919 51.4434 16.8785 51.5206 17.0161 51.6582C17.1536 51.7958 17.2309 51.9824 17.2309 52.177V53.5928C17.2309 53.7874 17.1536 53.974 17.0161 54.1116C16.8785 54.2491 16.6919 54.3264 16.4973 54.3264C16.3027 54.3264 16.1162 54.2491 15.9786 54.1116C15.841 53.974 15.7637 53.7874 15.7637 53.5928V52.1843C15.7627 52.0873 15.781 51.9912 15.8174 51.9013C15.8539 51.8115 15.9077 51.7297 15.976 51.6608C16.0442 51.5919 16.1254 51.5372 16.2149 51.4999C16.3044 51.4626 16.4004 51.4434 16.4973 51.4434Z" fill="#F7E7EF"/>
<path d="M16.4973 57.1284C16.6919 57.1284 16.8785 57.2057 17.0161 57.3433C17.1536 57.4809 17.2309 57.6675 17.2309 57.862V59.2852C17.2309 59.4798 17.1536 59.6664 17.0161 59.804C16.8785 59.9415 16.6919 60.0188 16.4973 60.0188C16.3027 60.0188 16.1162 59.9415 15.9786 59.804C15.841 59.6664 15.7637 59.4798 15.7637 59.2852V57.8694C15.7627 57.7724 15.781 57.6762 15.8174 57.5864C15.8539 57.4965 15.9077 57.4148 15.976 57.3459C16.0442 57.277 16.1254 57.2223 16.2149 57.185C16.3044 57.1476 16.4004 57.1284 16.4973 57.1284Z" fill="#F7E7EF"/>
<path d="M20.7121 28.7017C20.9067 28.7017 21.0933 28.7789 21.2309 28.9165C21.3684 29.0541 21.4457 29.2407 21.4457 29.4353V30.8585C21.4457 31.053 21.3684 31.2396 21.2309 31.3772C21.0933 31.5148 20.9067 31.5921 20.7121 31.5921C20.5176 31.5921 20.331 31.5148 20.1934 31.3772C20.0558 31.2396 19.9785 31.053 19.9785 30.8585V29.4353C19.9785 29.2407 20.0558 29.0541 20.1934 28.9165C20.331 28.7789 20.5176 28.7017 20.7121 28.7017Z" fill="#F7E7EF"/>
<path d="M24.9484 28.7017C25.143 28.7017 25.3296 28.7789 25.4672 28.9165C25.6048 29.0541 25.6821 29.2407 25.6821 29.4353V30.8585C25.6821 31.053 25.6048 31.2396 25.4672 31.3772C25.3296 31.5148 25.143 31.5921 24.9484 31.5921C24.7539 31.5921 24.5673 31.5148 24.4297 31.3772C24.2921 31.2396 24.2148 31.053 24.2148 30.8585V29.4353C24.2148 29.2407 24.2921 29.0541 24.4297 28.9165C24.5673 28.7789 24.7539 28.7017 24.9484 28.7017Z" fill="#F7E7EF"/>
<path d="M20.7121 34.3867C20.9067 34.3867 21.0933 34.464 21.2309 34.6016C21.3684 34.7392 21.4457 34.9258 21.4457 35.1203V36.5435C21.4457 36.7381 21.3684 36.9247 21.2309 37.0623C21.0933 37.1998 20.9067 37.2771 20.7121 37.2771C20.5176 37.2771 20.331 37.1998 20.1934 37.0623C20.0558 36.9247 19.9785 36.7381 19.9785 36.5435V35.1203C19.9785 34.9258 20.0558 34.7392 20.1934 34.6016C20.331 34.464 20.5176 34.3867 20.7121 34.3867Z" fill="#F7E7EF"/>
<path d="M20.7121 40.1089C20.9067 40.1089 21.0933 40.1862 21.2309 40.3238C21.3684 40.4613 21.4457 40.6479 21.4457 40.8425V42.2584C21.4457 42.4529 21.3684 42.6395 21.2309 42.7771C21.0933 42.9147 20.9067 42.992 20.7121 42.992C20.5176 42.992 20.331 42.9147 20.1934 42.7771C20.0558 42.6395 19.9785 42.4529 19.9785 42.2584V40.8425C19.9785 40.6479 20.0558 40.4613 20.1934 40.3238C20.331 40.1862 20.5176 40.1089 20.7121 40.1089Z" fill="#F7E7EF"/>
<path d="M20.7122 45.7578C20.9067 45.7578 21.0933 45.8351 21.2309 45.9727C21.3685 46.1103 21.4458 46.2969 21.4458 46.4914V47.9073C21.4458 48.1018 21.3685 48.2884 21.2309 48.426C21.0933 48.5636 20.9067 48.6409 20.7122 48.6409C20.5176 48.6409 20.331 48.5636 20.1934 48.426C20.0558 48.2884 19.9786 48.1018 19.9786 47.9073V46.4988C19.9776 46.4018 19.9958 46.3056 20.0323 46.2158C20.0687 46.1259 20.1226 46.0442 20.1908 45.9753C20.259 45.9064 20.3402 45.8517 20.4297 45.8144C20.5192 45.777 20.6152 45.7578 20.7122 45.7578Z" fill="#F7E7EF"/>
<path d="M20.7122 51.4434C20.9067 51.4434 21.0933 51.5206 21.2309 51.6582C21.3685 51.7958 21.4458 51.9824 21.4458 52.177V53.5928C21.4458 53.7874 21.3685 53.974 21.2309 54.1116C21.0933 54.2491 20.9067 54.3264 20.7122 54.3264C20.5176 54.3264 20.331 54.2491 20.1934 54.1116C20.0558 53.974 19.9786 53.7874 19.9786 53.5928V52.1843C19.9776 52.0873 19.9958 51.9912 20.0323 51.9013C20.0687 51.8115 20.1226 51.7297 20.1908 51.6608C20.259 51.5919 20.3402 51.5372 20.4297 51.4999C20.5192 51.4626 20.6152 51.4434 20.7122 51.4434Z" fill="#F7E7EF"/>
<path d="M20.7122 57.1284C20.9067 57.1284 21.0933 57.2057 21.2309 57.3433C21.3685 57.4809 21.4458 57.6675 21.4458 57.862V59.2852C21.4458 59.4798 21.3685 59.6664 21.2309 59.804C21.0933 59.9415 20.9067 60.0188 20.7122 60.0188C20.5176 60.0188 20.331 59.9415 20.1934 59.804C20.0558 59.6664 19.9786 59.4798 19.9786 59.2852V57.8694C19.9776 57.7724 19.9958 57.6762 20.0323 57.5864C20.0687 57.4965 20.1226 57.4148 20.1908 57.3459C20.259 57.277 20.3402 57.2223 20.4297 57.185C20.5192 57.1476 20.6152 57.1284 20.7122 57.1284Z" fill="#F7E7EF"/>
<path d="M24.9484 34.3867C25.143 34.3867 25.3296 34.464 25.4672 34.6016C25.6048 34.7392 25.6821 34.9258 25.6821 35.1203V36.5435C25.6821 36.7381 25.6048 36.9247 25.4672 37.0623C25.3296 37.1998 25.143 37.2771 24.9484 37.2771C24.7539 37.2771 24.5673 37.1998 24.4297 37.0623C24.2921 36.9247 24.2148 36.7381 24.2148 36.5435V35.1203C24.2148 34.9258 24.2921 34.7392 24.4297 34.6016C24.5673 34.464 24.7539 34.3867 24.9484 34.3867Z" fill="#F7E7EF"/>
<path d="M24.9484 40.1089C25.143 40.1089 25.3296 40.1862 25.4672 40.3238C25.6048 40.4613 25.6821 40.6479 25.6821 40.8425V42.2584C25.6821 42.4529 25.6048 42.6395 25.4672 42.7771C25.3296 42.9147 25.143 42.992 24.9484 42.992C24.7539 42.992 24.5673 42.9147 24.4297 42.7771C24.2921 42.6395 24.2148 42.4529 24.2148 42.2584V40.8425C24.2148 40.6479 24.2921 40.4613 24.4297 40.3238C24.5673 40.1862 24.7539 40.1089 24.9484 40.1089Z" fill="#F7E7EF"/>
<path d="M24.9485 45.7578C25.143 45.7578 25.3296 45.8351 25.4672 45.9727C25.6048 46.1103 25.6821 46.2969 25.6821 46.4914V47.9073C25.6821 48.1018 25.6048 48.2884 25.4672 48.426C25.3296 48.5636 25.143 48.6409 24.9485 48.6409C24.7539 48.6409 24.5673 48.5636 24.4297 48.426C24.2922 48.2884 24.2149 48.1018 24.2149 47.9073V46.4988C24.2139 46.4018 24.2322 46.3056 24.2686 46.2158C24.305 46.1259 24.3589 46.0442 24.4271 45.9753C24.4954 45.9064 24.5766 45.8517 24.666 45.8144C24.7555 45.777 24.8515 45.7578 24.9485 45.7578Z" fill="#F7E7EF"/>
<path d="M24.9485 51.4434C25.143 51.4434 25.3296 51.5206 25.4672 51.6582C25.6048 51.7958 25.6821 51.9824 25.6821 52.177V53.5928C25.6821 53.7874 25.6048 53.974 25.4672 54.1116C25.3296 54.2491 25.143 54.3264 24.9485 54.3264C24.7539 54.3264 24.5673 54.2491 24.4297 54.1116C24.2922 53.974 24.2149 53.7874 24.2149 53.5928V52.1843C24.2139 52.0873 24.2322 51.9912 24.2686 51.9013C24.305 51.8115 24.3589 51.7297 24.4271 51.6608C24.4954 51.5919 24.5766 51.5372 24.666 51.4999C24.7555 51.4626 24.8515 51.4434 24.9485 51.4434Z" fill="#F7E7EF"/>
<path d="M24.9485 57.1284C25.143 57.1284 25.3296 57.2057 25.4672 57.3433C25.6048 57.4809 25.6821 57.6675 25.6821 57.862V59.2852C25.6821 59.4798 25.6048 59.6664 25.4672 59.804C25.3296 59.9415 25.143 60.0188 24.9485 60.0188C24.7539 60.0188 24.5673 59.9415 24.4297 59.804C24.2922 59.6664 24.2149 59.4798 24.2149 59.2852V57.8694C24.2139 57.7724 24.2322 57.6762 24.2686 57.5864C24.305 57.4965 24.3589 57.4148 24.4271 57.3459C24.4954 57.277 24.5766 57.2223 24.666 57.185C24.7555 57.1476 24.8515 57.1284 24.9485 57.1284Z" fill="#F7E7EF"/>
<path d="M60.4641 23.4567C60.2695 23.4567 60.0829 23.3794 59.9453 23.2419C59.8078 23.1043 59.7305 22.9177 59.7305 22.7231V15.9006C59.7305 15.706 59.8078 15.5194 59.9453 15.3819C60.0829 15.2443 60.2695 15.167 60.4641 15.167C60.6586 15.167 60.8452 15.2443 60.9828 15.3819C61.1204 15.5194 61.1977 15.706 61.1977 15.9006V22.7305C61.1957 22.9238 61.1176 23.1085 60.9802 23.2445C60.8429 23.3805 60.6574 23.4567 60.4641 23.4567Z" fill="#F7E7EF"/>
<path d="M18.3469 15.8271C18.1523 15.8271 17.9657 15.7498 17.8281 15.6122C17.6906 15.4746 17.6133 15.288 17.6133 15.0935V12.6726C17.6133 12.478 17.6906 12.2914 17.8281 12.1538C17.9657 12.0163 18.1523 11.939 18.3469 11.939C18.5415 11.939 18.728 12.0163 18.8656 12.1538C19.0032 12.2914 19.0805 12.478 19.0805 12.6726V15.0935C19.0805 15.288 19.0032 15.4746 18.8656 15.6122C18.728 15.7498 18.5415 15.8271 18.3469 15.8271Z" fill="#F7E7EF"/>
<path d="M5.75118 25.0778C5.55662 25.0778 5.37002 25.0006 5.23245 24.863C5.09487 24.7254 5.01758 24.5388 5.01758 24.3442V17.507C5.01758 17.3125 5.09487 17.1259 5.23245 16.9883C5.37002 16.8507 5.55662 16.7734 5.75118 16.7734C5.94575 16.7734 6.13234 16.8507 6.26992 16.9883C6.4075 17.1259 6.48479 17.3125 6.48479 17.507V24.3442C6.48479 24.5388 6.4075 24.7254 6.26992 24.863C6.13234 25.0006 5.94575 25.0778 5.75118 25.0778Z" fill="#F7E7EF"/>
<path d="M51.7479 7.16322C51.7495 6.93394 51.689 6.70851 51.5727 6.51088C51.4565 6.31325 51.2888 6.1508 51.0877 6.04081L49.3343 5.07978L48.3733 3.32646C48.2595 3.13075 48.0954 2.96904 47.8981 2.85811C47.7007 2.74717 47.4773 2.69105 47.2509 2.69556C47.0219 2.69553 46.7971 2.75672 46.5998 2.87281C46.4024 2.98891 46.2397 3.15566 46.1285 3.35581L45.1748 5.10913L43.4215 6.07015C43.2195 6.1798 43.0508 6.34196 42.9333 6.53952C42.8158 6.73708 42.7538 6.9627 42.7539 7.19257C42.7554 7.42211 42.818 7.64711 42.9353 7.8444C43.0527 8.04169 43.2205 8.20413 43.4215 8.31498L45.1748 9.26867L46.1285 11.022C46.2393 11.223 46.4018 11.3908 46.5991 11.5081C46.7964 11.6255 47.0214 11.6881 47.2509 11.6896C47.4808 11.6897 47.7064 11.6277 47.9039 11.5102C48.1015 11.3927 48.2637 11.224 48.3733 11.022L49.3343 9.26867L51.0877 8.31498C51.2922 8.20139 51.4619 8.03406 51.5782 7.83107C51.6946 7.62808 51.7533 7.39714 51.7479 7.16322ZM50.0679 7.16322L48.6007 7.97752C48.3877 8.09517 48.2122 8.27064 48.0946 8.48371L47.2729 9.95092L46.4586 8.48371C46.341 8.27064 46.1655 8.09517 45.9524 7.97752L44.4852 7.16322L45.9524 6.34158C46.1655 6.22394 46.341 6.04846 46.4586 5.8354L47.2729 4.36818L48.0946 5.8354C48.2122 6.04846 48.3877 6.22394 48.6007 6.34158L50.0679 7.16322Z" fill="#F7E7EF"/>
<path d="M60.4641 7.66894C60.2695 7.66894 60.0829 7.59165 59.9453 7.45408C59.8078 7.3165 59.7305 7.1299 59.7305 6.93534V5.98165C59.7305 5.78709 59.8078 5.60049 59.9453 5.46292C60.0829 5.32534 60.2695 5.24805 60.4641 5.24805C60.6586 5.24805 60.8452 5.32534 60.9828 5.46292C61.1204 5.60049 61.1977 5.78709 61.1977 5.98165V6.93534C61.1977 7.1299 61.1204 7.3165 60.9828 7.45408C60.8452 7.59165 60.6586 7.66894 60.4641 7.66894Z" fill="#F7E7EF"/>
<path d="M60.4641 12.6133C60.2695 12.6133 60.0829 12.536 59.9453 12.3984C59.8078 12.2608 59.7305 12.0743 59.7305 11.8797V10.9187C59.7305 10.7241 59.8078 10.5375 59.9453 10.3999C60.0829 10.2623 60.2695 10.1851 60.4641 10.1851C60.6586 10.1851 60.8452 10.2623 60.9828 10.3999C61.1204 10.5375 61.1977 10.7241 61.1977 10.9187V11.8797C61.1977 12.0743 61.1204 12.2608 60.9828 12.3984C60.8452 12.536 60.6586 12.6133 60.4641 12.6133Z" fill="#F7E7EF"/>
<path d="M58.47 9.66448H57.509C57.3144 9.66448 57.1278 9.58719 56.9903 9.44961C56.8527 9.31203 56.7754 9.12544 56.7754 8.93087C56.7754 8.73631 56.8527 8.54971 56.9903 8.41213C57.1278 8.27456 57.3144 8.19727 57.509 8.19727H58.47C58.6646 8.19727 58.8512 8.27456 58.9888 8.41213C59.1263 8.54971 59.2036 8.73631 59.2036 8.93087C59.2036 9.12544 59.1263 9.31203 58.9888 9.44961C58.8512 9.58719 58.6646 9.66448 58.47 9.66448Z" fill="#F7E7EF"/>
<path d="M63.4134 9.66448H62.4524C62.2578 9.66448 62.0712 9.58719 61.9336 9.44961C61.796 9.31203 61.7188 9.12544 61.7188 8.93087C61.7188 8.73631 61.796 8.54971 61.9336 8.41213C62.0712 8.27456 62.2578 8.19727 62.4524 8.19727H63.4134C63.6079 8.19727 63.7945 8.27456 63.9321 8.41213C64.0697 8.54971 64.147 8.73631 64.147 8.93087C64.147 9.12544 64.0697 9.31203 63.9321 9.44961C63.7945 9.58719 63.6079 9.66448 63.4134 9.66448Z" fill="#F7E7EF"/>
<path d="M5.75118 9.58351C5.55662 9.58351 5.37002 9.50622 5.23245 9.36864C5.09487 9.23106 5.01758 9.04447 5.01758 8.8499V7.88888C5.01758 7.69431 5.09487 7.50772 5.23245 7.37014C5.37002 7.23256 5.55662 7.15527 5.75118 7.15527C5.94575 7.15527 6.13234 7.23256 6.26992 7.37014C6.4075 7.50772 6.48479 7.69431 6.48479 7.88888V8.8499C6.48479 8.94624 6.46581 9.04164 6.42895 9.13064C6.39208 9.21965 6.33804 9.30052 6.26992 9.36864C6.2018 9.43676 6.12093 9.4908 6.03192 9.52766C5.94292 9.56453 5.84752 9.58351 5.75118 9.58351Z" fill="#F7E7EF"/>
<path d="M5.75118 14.5283C5.55662 14.5283 5.37002 14.451 5.23245 14.3135C5.09487 14.1759 5.01758 13.9893 5.01758 13.7947V12.8337C5.01758 12.6391 5.09487 12.4525 5.23245 12.315C5.37002 12.1774 5.55662 12.1001 5.75118 12.1001C5.94575 12.1001 6.13234 12.1774 6.26992 12.315C6.4075 12.4525 6.48479 12.6391 6.48479 12.8337V13.7947C6.48479 13.9893 6.4075 14.1759 6.26992 14.3135C6.13234 14.451 5.94575 14.5283 5.75118 14.5283Z" fill="#F7E7EF"/>
<path d="M3.75517 11.579H2.79415C2.59959 11.579 2.41299 11.5017 2.27541 11.3642C2.13784 11.2266 2.06055 11.04 2.06055 10.8454C2.06055 10.6509 2.13784 10.4643 2.27541 10.3267C2.41299 10.1891 2.59959 10.1118 2.79415 10.1118H3.75517C3.94974 10.1118 4.13633 10.1891 4.27391 10.3267C4.41149 10.4643 4.48878 10.6509 4.48878 10.8454C4.48878 11.04 4.41149 11.2266 4.27391 11.3642C4.13633 11.5017 3.94974 11.579 3.75517 11.579Z" fill="#F7E7EF"/>
<path d="M8.70292 11.579H7.74923C7.55467 11.579 7.36807 11.5017 7.23049 11.3642C7.09292 11.2266 7.01562 11.04 7.01562 10.8454C7.01562 10.6509 7.09292 10.4643 7.23049 10.3267C7.36807 10.1891 7.55467 10.1118 7.74923 10.1118H8.70292C8.89748 10.1118 9.08408 10.1891 9.22165 10.3267C9.35923 10.4643 9.43652 10.6509 9.43652 10.8454C9.43652 11.04 9.35923 11.2266 9.22165 11.3642C9.08408 11.5017 8.89748 11.579 8.70292 11.579Z" fill="#F7E7EF"/>
<path d="M18.3469 3.3186C18.1523 3.3186 17.9657 3.2413 17.8281 3.10373C17.6906 2.96615 17.6133 2.77955 17.6133 2.58499V1.48458C17.6133 1.29002 17.6906 1.10342 17.8281 0.965845C17.9657 0.828267 18.1523 0.750977 18.3469 0.750977C18.5415 0.750977 18.728 0.828267 18.8656 0.965845C19.0032 1.10342 19.0805 1.29002 19.0805 1.48458V2.58499C19.0805 2.77955 19.0032 2.96615 18.8656 3.10373C18.728 3.2413 18.5415 3.3186 18.3469 3.3186Z" fill="#F7E7EF"/>
<path d="M18.3469 8.99682C18.1523 8.99682 17.9657 8.91953 17.8281 8.78195C17.6906 8.64437 17.6133 8.45778 17.6133 8.26321V7.1628C17.6133 6.96824 17.6906 6.78165 17.8281 6.64407C17.9657 6.50649 18.1523 6.4292 18.3469 6.4292C18.5415 6.4292 18.728 6.50649 18.8656 6.64407C19.0032 6.78165 19.0805 6.96824 19.0805 7.1628V8.26321C19.0805 8.45778 19.0032 8.64437 18.8656 8.78195C18.728 8.91953 18.5415 8.99682 18.3469 8.99682Z" fill="#F7E7EF"/>
<path d="M16.0293 5.62981H14.9289C14.7344 5.62981 14.5478 5.55252 14.4102 5.41494C14.2726 5.27736 14.1953 5.09077 14.1953 4.8962C14.1953 4.70164 14.2726 4.51504 14.4102 4.37747C14.5478 4.23989 14.7344 4.1626 14.9289 4.1626H16.0293C16.2239 4.1626 16.4105 4.23989 16.5481 4.37747C16.6856 4.51504 16.7629 4.70164 16.7629 4.8962C16.7629 5.09077 16.6856 5.27736 16.5481 5.41494C16.4105 5.55252 16.2239 5.62981 16.0293 5.62981Z" fill="#F7E7EF"/>
<path d="M21.709 5.62981H20.6086C20.414 5.62981 20.2274 5.55252 20.0899 5.41494C19.9523 5.27736 19.875 5.09077 19.875 4.8962C19.875 4.70164 19.9523 4.51504 20.0899 4.37747C20.2274 4.23989 20.414 4.1626 20.6086 4.1626H21.709C21.9036 4.1626 22.0902 4.23989 22.2277 4.37747C22.3653 4.51504 22.4426 4.70164 22.4426 4.8962C22.4426 5.09077 22.3653 5.27736 22.2277 5.41494C22.0902 5.55252 21.9036 5.62981 21.709 5.62981Z" fill="#F7E7EF"/>
</g>
<defs>
<clipPath id="clip0_7019_13216">
<rect width="67" height="65" fill="white"/>
</clipPath>
</defs>
</svg>
