<svg width="64" height="64" viewBox="0 0 64 64" fill="none" xmlns="http://www.w3.org/2000/svg">
<g clip-path="url(#clip0_7020_12980)">
<path d="M8.41016 59.0883V63.1069C8.41016 64.5209 10.5683 64.5209 10.5683 63.1069V59.0883C10.5683 57.6743 8.41016 57.6743 8.41016 59.0883Z" fill="#F7E7EF"/>
<path d="M63.1074 44.8223H55.5911V40.511C55.5911 39.9164 55.1446 39.4704 54.5492 39.4704H37.433V34.6388H44.9492C45.5446 34.6388 45.9911 34.1928 45.9911 33.5981V16.5017C45.9911 15.9071 45.5446 15.4611 44.9492 15.4611H27.833C27.2376 15.4611 26.7911 15.9071 26.7911 16.5017V24.0093H10.5678V19.1777H18.0841C18.6795 19.1777 19.126 18.7317 19.126 18.137V1.04065C19.126 0.445993 18.6795 0 18.0841 0H0.967842C0.372493 0 -0.074019 0.445993 -0.074019 1.04065V18.137C-0.074019 18.7317 0.372493 19.1777 0.967842 19.1777H8.48412V30.9222H0.893423C0.298074 30.9222 -0.148438 31.3682 -0.148438 31.9628V49.0592C-0.148438 49.6539 0.298074 50.0999 0.893423 50.0999H8.4097C8.4097 50.0999 8.4097 50.5459 8.4097 54.6341C8.4097 56.0465 10.5678 56.0465 10.5678 54.6341C10.5678 50.5459 10.5678 50.0999 10.5678 50.0999H18.0841C18.6795 50.0999 19.126 49.6539 19.126 49.0592V31.9628C19.126 31.3682 18.6795 30.9222 18.0841 30.9222H10.5678V26.0906H26.6423V33.5981C26.6423 34.1928 27.0888 34.6388 27.6841 34.6388H35.2004V39.4704V42.964C35.2004 44.3763 37.3585 44.3763 37.3585 42.964V41.626H53.433V44.8223H45.9167C45.3213 44.8223 44.8748 45.2683 44.8748 45.8629V62.9593C44.8748 63.554 45.3213 64 45.9167 64H63.033C63.6283 64 64.0748 63.554 64.0748 62.9593V45.8629C64.1492 45.2683 63.7027 44.8223 63.1074 44.8223ZM2.0097 2.00697H17.0423V17.0221H2.0097V2.00697ZM16.9678 48.0186H2.0097V33.0035H17.0423V48.0186H16.9678ZM28.8004 17.5424H43.833V32.5575H28.8004V17.5424ZM61.9911 61.9187H47.033V46.9779H62.0655L61.9911 61.9187Z" fill="#F7E7EF"/>
<path d="M35.2012 59.6093V63.107C35.2012 64.5209 37.3593 64.5209 37.3593 63.107V59.6093C37.3593 58.1953 35.2012 58.1953 35.2012 59.6093Z" fill="#F7E7EF"/>
<path d="M35.2012 48.5209V54.0279C35.2012 55.4418 37.3593 55.4418 37.3593 54.0279V48.5209C37.3593 47.107 35.2012 47.107 35.2012 48.5209Z" fill="#F7E7EF"/>
</g>
<defs>
<clipPath id="clip0_7020_12980">
<rect width="64" height="64" fill="white"/>
</clipPath>
</defs>
</svg>
