<svg width="46" height="41" viewBox="0 0 46 41" fill="none" xmlns="http://www.w3.org/2000/svg">
<g clip-path="url(#clip0_7028_14396)">
<path d="M41.4726 18.8147C41.4393 17.8351 39.9819 17.8813 39.9911 18.8554C40.0745 21.9202 39.3893 24.8719 38.017 27.5035C35.9855 26.2183 33.1431 27.4924 32.5799 29.7979C32.178 30.0775 31.5095 29.5812 31.1503 29.2109C30.4003 28.3979 29.0595 27.7776 28.0021 28.4387C27.5355 28.7109 27.2558 29.1609 27.2354 29.6701C27.2114 30.2498 26.7688 30.8072 26.204 30.9646C25.6428 31.122 24.9762 30.8757 24.6484 30.3887C24.3318 29.9202 23.8243 29.6369 23.2225 29.5924C21.7021 29.4443 20.5429 30.8239 20.054 32.1035C19.7595 32.8461 18.9762 34.0943 18.1688 33.7646C16.604 32.9276 14.528 33.3424 13.2408 34.6517C12.1871 34.0313 11.176 33.2998 10.2371 32.4424C9.93524 32.1646 9.46672 32.1868 9.19081 32.4887C8.91489 32.7905 8.93526 33.2591 9.23711 33.535C16.4724 40.2071 28.0261 40.3109 35.3036 33.4442L35.8277 33.9683C28.3165 41.2477 15.3349 41.0202 8.08487 33.4591C7.6108 33.0165 7.09785 32.1035 6.38304 32.6795C6.07193 32.9443 6.03489 33.4128 6.29971 33.7239C13.9181 42.563 28.5442 43.1589 36.8737 35.0183C37.5644 35.7276 38.6218 34.6813 37.9367 33.985L36.3515 32.3998C39.794 28.6905 41.6089 23.8978 41.4719 18.8166L41.4726 18.8147ZM34.7948 31.8887C29.3467 37.3368 21.2576 38.5352 14.6429 35.3998C15.4762 34.7961 16.6336 34.6239 17.4725 35.072C18.6984 35.7276 20.1095 34.922 20.8133 33.8313C21.3133 33.0868 21.5725 32.1183 22.1392 31.4831C22.4077 31.1628 23.1614 30.885 23.4225 31.2183C24.9762 33.4998 28.5781 32.4905 28.7094 29.7479C29.139 29.4053 29.7835 29.9387 30.1557 30.3072C31.1409 31.4813 33.4761 31.9424 34.0205 30.1516C34.3594 28.8091 36.0723 27.9942 37.2779 28.7794C36.576 29.8887 35.7483 30.9313 34.7946 31.8868L34.7948 31.8887Z" fill="#F7E7EF"/>
<path d="M1.17511 23.613C1.38807 24.5667 2.80474 24.2722 2.62696 23.3167C1.3325 16.9612 3.18438 10.4427 7.57345 5.71668L8.09939 6.24262C3.7142 10.9315 1.96771 17.5853 3.51604 23.8535C1.42902 26.2331 0.719759 28.2035 1.44011 29.7036C4.56417 34.9668 19.901 29.0628 26.5177 25.8814C32.6825 22.9554 47.3713 14.4927 45.1844 8.70899C44.6195 7.52935 43.2695 6.86086 41.1862 6.69602L42.6955 5.70156C43.501 5.16638 42.6918 3.93302 41.8806 4.46451L38.788 6.50341C38.3806 6.75711 38.3436 7.3849 38.7158 7.68674L41.538 10.0849C42.2769 10.7071 43.2343 9.58859 42.4973 8.95527L41.651 8.23676C45.9991 8.88307 43.588 12.246 39.9676 15.5958C36.5695 18.6366 31.5637 21.8142 25.8748 24.5459C19.169 27.7588 12.4026 29.8868 7.77657 30.2385C3.06731 30.5385 1.13195 29.3237 4.00806 25.5774C4.4451 26.8237 5.00068 28.0571 5.67656 29.1793C5.88767 29.533 6.3488 29.6423 6.69322 29.433C7.04322 29.2219 7.15803 28.7682 6.94692 28.4164C4.55432 24.4627 3.83026 19.3924 4.98212 14.9536C6.49693 17.211 10.0542 16.9536 11.4357 14.624C11.5857 14.3758 11.8283 14.2351 12.1579 14.2055C12.7264 14.1499 13.4005 14.4444 13.8042 14.9055C14.6431 15.8703 14.9857 17.3962 15.5505 18.6055C16.2061 20.024 17.4598 21.4592 19.0783 21.4592C21.1172 21.4647 22.3209 19.2999 22.3265 17.4166C22.3339 15.8129 21.7635 14.4277 21.419 12.9258C21.0431 11.737 21.0042 8.4962 23.2172 8.82402C23.4709 8.87217 23.8005 9.00735 23.9172 9.39068C24.2968 10.6222 25.8413 10.9611 26.9635 10.4666C27.8357 10.1999 28.7858 8.94254 29.6561 9.61288C29.7598 9.71288 29.7469 9.77769 29.7431 9.79806C29.2117 11.9295 32.0561 14.1147 33.9135 12.7907C35.4617 11.7036 38.5765 11.8036 39.1468 13.8962C39.4468 14.8166 40.8413 14.3851 40.5598 13.4499C36.6839 0.259259 18.9766 -4.34258 9.14482 5.19247C8.79667 4.84618 7.88558 3.93134 7.55776 3.60542C6.87073 2.92393 5.82815 3.96467 6.50963 4.65355C1.78558 9.74795 -0.217955 16.7685 1.1744 23.6127L1.17511 23.613ZM9.65487 6.75206C17.753 -1.6163 32.5086 0.54074 37.8751 10.8984C36.288 10.3965 34.4806 10.6169 33.086 11.5632C32.1971 12.065 31.0248 11.0539 31.1989 10.0891C31.4971 8.73905 29.9026 7.65759 28.6786 7.97052C27.7711 8.16312 27.1564 8.75943 26.3878 9.102C26.0527 9.24089 25.4842 9.27792 25.3379 8.95199C25.086 8.12791 24.3971 7.53532 23.4953 7.36868C20.0286 6.85573 19.2619 10.8576 19.9823 13.2595C20.286 14.6225 20.8619 16.054 20.8526 17.4058C20.6471 20.5429 18.1989 20.8392 16.9045 17.9873C16.2823 16.6133 15.9638 15.1243 14.9286 13.9336C13.7545 12.5373 11.1823 12.154 10.175 13.8595C8.88801 15.8558 5.98985 15.2021 5.66947 12.8244C6.54912 10.5854 7.89169 8.52066 9.65838 6.75194L9.65487 6.75206Z" fill="#F7E7EF"/>
</g>
<defs>
<clipPath id="clip0_7028_14396">
<rect width="46" height="41" fill="white"/>
</clipPath>
</defs>
</svg>
