<svg width="46" height="43" viewBox="0 0 46 43" fill="none" xmlns="http://www.w3.org/2000/svg">
<g clip-path="url(#clip0_7028_14400)">
<path d="M14.0199 32.9836C14.9736 33.1522 15.2551 31.73 14.2995 31.5281C10.5403 30.8059 7.3477 28.6781 5.19967 25.7596C5.50337 23.9262 7.42189 22.6133 9.23854 22.7707C10.5089 22.9188 11.1478 21.2818 10.6422 20.2632C10.3978 19.6744 9.86631 19.2244 9.6589 18.6966C9.63668 18.6262 9.66816 18.5132 9.7089 18.4355C11.0218 19.0688 12.5108 19.7706 14.133 19.7151C17.3144 19.7373 19.8702 15.8244 16.4866 13.828C15.5867 13.3614 14.6051 13.441 13.9237 14.0391C13.8533 14.1003 13.7459 14.1077 13.6052 14.0595C12.4311 13.5484 13.2367 12.1465 13.7718 11.3688C14.8589 9.97802 15.8978 7.83544 14.2682 6.34453C13.7941 5.91675 13.2107 5.73899 12.6256 5.84452C11.4349 6.05748 10.1256 5.32413 9.62005 4.23528C17.4664 -0.631568 28.4664 3.56304 31.1942 12.3908C29.1627 14.613 27.7701 17.0315 24.7833 15.163C23.8407 14.6926 22.8018 14.1889 21.6055 14.3741C20.3482 14.5556 19.1815 15.8685 19.55 17.1519C19.8093 18.3593 18.4963 19.5556 17.3148 19.1815C15.9296 18.6241 14.7222 20.6 15.4556 21.7204C15.7241 22.2852 16.4315 22.676 16.8963 22.1093C17.15 21.8019 17.0945 21.3334 16.7963 21.0686C16.6723 20.9797 16.7352 20.6834 16.8482 20.5908C17.8704 20.95 19.0575 20.6686 19.9574 19.85C20.876 19.0149 21.2667 17.8334 20.9778 16.7686C20.8833 16.3186 21.4259 15.9038 21.8389 15.839C22.5852 15.7223 23.4148 16.1371 24.1204 16.4908C27.1648 18.2982 29.4148 16.9927 31.6444 14.0927C31.8333 15.0427 31.937 16.013 31.937 16.9908C31.937 17.4001 32.2685 17.7316 32.6777 17.7316C33.087 17.7316 33.4185 17.4001 33.4185 16.9908C33.4185 15.4204 33.1944 13.8668 32.7518 12.3741C29.8592 2.13319 17.2297 -2.60376 8.39439 3.23873C-3.90546 11.0017 -0.468421 30.1609 14.0202 32.9831L14.0199 32.9836ZM4.18096 24.182C0.475404 17.8877 2.53464 9.12066 8.37357 5.06164C9.22174 6.63755 11.1162 7.62832 12.8921 7.30424C13.3661 7.26165 13.6754 7.9487 13.6421 8.36166C13.3402 10.1987 11.1235 11.532 11.5717 13.7211C11.7865 15.1137 13.7587 16.2007 14.8976 15.1544C15.642 14.634 16.6883 15.6618 16.5994 16.3859C16.4865 17.4563 15.2142 18.2062 14.0957 18.234C12.7643 18.2636 11.4105 17.6118 10.2198 17.0359C9.74759 16.8026 9.21795 16.8766 8.80313 17.2322C7.8235 18.06 8.13459 19.447 8.89758 20.2692C9.1198 20.5896 9.44385 20.9118 9.29202 21.2896C7.205 21.1433 5.11602 22.3209 4.18096 24.182Z" fill="#F7E7EF"/>
<path d="M41.5673 18.4707H26.7525C24.7099 18.4707 23.0488 20.1318 23.0488 22.1744V32.5448C23.0488 34.5874 24.7099 36.2485 26.7525 36.2485H34.9322C35.5211 37.4948 36.8841 38.3689 38.497 38.4818C38.7859 38.5022 39.0674 38.3485 39.2044 38.0892C39.5489 37.4151 38.6766 36.9781 38.7933 36.2485H41.5655C43.6081 36.2485 45.2693 34.5874 45.2693 32.5448V22.1744C45.2693 20.1318 43.6081 18.4707 41.5655 18.4707L41.5673 18.4707ZM43.7896 32.545C43.7896 33.7709 42.7933 34.7672 41.5673 34.7672H38.1636C37.2562 34.7987 37.2914 36.0246 37.3359 36.6635C36.7451 36.3617 36.3137 35.8858 36.1618 35.3173C36.0747 34.9932 35.7821 34.7691 35.447 34.7691H26.7524C25.5265 34.7691 24.5302 33.7728 24.5302 32.5469V22.1765C24.5302 20.9506 25.5265 19.9543 26.7524 19.9543H41.5673C42.7932 19.9543 43.7895 20.9506 43.7895 22.1765V32.5469L43.7896 32.545Z" fill="#F7E7EF"/>
<path d="M23.4555 39.0035C23.3629 38.6868 23.074 38.4701 22.7443 38.4701H19.3443C18.1184 38.4701 17.1221 37.4738 17.1221 36.2479V25.8775C17.1221 24.6516 18.1184 23.6553 19.3443 23.6553H21.5666C21.9758 23.6553 22.3073 23.3238 22.3073 22.9146C22.3073 22.5053 21.9758 22.1738 21.5666 22.1738H19.3443C17.3017 22.1738 15.6406 23.8349 15.6406 25.8775V36.2479C15.6406 38.2905 17.3017 39.9516 19.3443 39.9516H22.1184C22.2369 40.6794 21.3591 41.1183 21.7055 41.7942C21.8425 42.0534 22.1221 42.209 22.411 42.1868C24.0277 42.0738 25.3907 41.2016 25.9777 39.9516H34.1592C34.9333 39.9387 36.4593 39.6942 36.05 38.6164C35.8722 38.2479 35.4296 38.0942 35.0611 38.2701C35.1111 38.6572 25.8276 38.4035 25.463 38.472C25.1278 38.472 24.8334 38.6979 24.7464 39.022C24.5945 39.5905 24.1667 40.0664 23.576 40.3683C23.6278 39.9257 23.5888 39.4646 23.4555 39.0035Z" fill="#F7E7EF"/>
<path d="M40.8248 22.1738H26.7505C26.3412 22.1738 26.0098 22.5053 26.0098 22.9146C26.0098 23.3238 26.3412 23.6553 26.7505 23.6553H40.8248C41.7934 23.6405 41.8026 22.1905 40.8248 22.1738Z" fill="#F7E7EF"/>
<path d="M40.8248 25.1372H26.7505C26.3412 25.1372 26.0098 25.4687 26.0098 25.8779C26.0098 26.2872 26.3412 26.6187 26.7505 26.6187H40.8248C41.7934 26.6039 41.8026 25.1539 40.8248 25.1372Z" fill="#F7E7EF"/>
<path d="M40.8248 28.1001H26.7505C26.3412 28.1001 26.0098 28.4316 26.0098 28.8408C26.0098 29.2501 26.3412 29.5816 26.7505 29.5816H40.8248C41.7934 29.5668 41.8026 28.1168 40.8248 28.1001Z" fill="#F7E7EF"/>
<path d="M37.1229 31.063H30.4564C29.4842 31.0797 29.4823 32.5278 30.4564 32.5445H37.1229C38.0951 32.5278 38.0988 31.0797 37.1229 31.063Z" fill="#F7E7EF"/>
</g>
<defs>
<clipPath id="clip0_7028_14400">
<rect width="46" height="43" fill="white"/>
</clipPath>
</defs>
</svg>
