<svg width="60" height="59" viewBox="0 0 60 59" fill="none" xmlns="http://www.w3.org/2000/svg">
<g clip-path="url(#clip0_7026_17816)">
<path fill-rule="evenodd" clip-rule="evenodd" d="M29.173 17.4716L35.8553 22.6746L40.9432 15.9045C45.5923 9.71856 40.2735 1.25391 33.089 2.24982C25.8058 3.2594 23.2001 12.821 29.173 17.4716ZM34.6932 25.2263C35.1062 25.1713 35.4863 25.4673 35.5423 25.8875C35.5982 26.3076 35.3088 26.6927 34.8957 26.7477L32.1053 27.1193C31.6922 27.1743 31.3121 26.8783 31.2562 26.4581C31.2002 26.038 31.4897 25.6529 31.9027 25.5979L34.6932 25.2263ZM29.5646 25.9092C29.9776 25.8542 30.3577 26.1501 30.4136 26.5703C30.4696 26.9905 30.1802 27.3756 29.7671 27.4306L26.9216 27.8094C26.5085 27.8644 26.1284 27.5685 26.0725 27.1483C26.0165 26.7281 26.306 26.343 26.719 26.288L29.5646 25.9092ZM24.4034 26.614C24.8111 26.5314 25.2089 26.8006 25.2921 27.2154C25.3752 27.6303 25.1122 28.0336 24.7045 28.1162C23.9835 28.2637 23.2943 28.5818 22.7133 29.0216C22.3807 29.273 21.9092 29.2017 21.6605 28.8624C21.4117 28.523 21.4797 28.0442 21.8123 27.7928C22.5836 27.209 23.4514 26.8104 24.4034 26.614ZM20.0546 29.7928C20.2637 29.4275 20.7252 29.3051 21.0854 29.5194C21.4457 29.7336 21.5681 30.2034 21.359 30.5686C21.0093 31.1793 20.7821 31.8663 20.7047 32.5713C20.6588 32.9916 20.2865 33.2931 19.8727 33.2445C19.4591 33.196 19.1609 32.816 19.2068 32.3957C19.3081 31.4725 19.5995 30.5875 20.0546 29.7928ZM19.4751 35.1569C19.3491 34.7528 19.5686 34.3228 19.9656 34.1964C20.3625 34.0702 20.7865 34.2953 20.9126 34.6994C21.1172 35.3542 21.4546 35.9672 21.8846 36.4799C22.1539 36.8014 22.117 37.283 21.8019 37.5554C21.4868 37.8278 21.0129 37.788 20.7436 37.4665C20.1696 36.7823 19.7426 36.0115 19.4751 35.1569ZM22.5695 38.9899C23.2709 39.3879 24.0395 39.6552 24.8354 39.772C25.2473 39.8324 25.628 39.5421 25.6856 39.1236C25.7431 38.7051 25.4559 38.3167 25.044 38.2564C24.4252 38.1656 23.8375 37.9602 23.2954 37.6534C22.9315 37.4481 22.474 37.5807 22.2736 37.9497C22.0731 38.3189 22.2056 38.7846 22.5695 38.9899ZM11.7319 52.5106C11.3189 52.5656 10.9388 52.2696 10.8828 51.8494C10.8269 51.4293 11.1163 51.0442 11.5293 50.9892L15.5855 50.4491C15.9985 50.3941 16.3786 50.6901 16.4346 51.1103C16.4905 51.5304 16.2011 51.9155 15.788 51.9705L11.7319 52.5106ZM19.0154 51.5377C18.604 51.5925 18.2253 51.2976 18.1696 50.8791C18.1139 50.4606 18.4022 50.0769 18.8136 50.0222L23.1457 49.445C23.5571 49.3902 23.9358 49.6851 23.9915 50.1036C24.0472 50.5221 23.7589 50.9058 23.3474 50.9606L19.0154 51.5377ZM26.6758 50.5175C26.2644 50.5723 25.8857 50.2775 25.83 49.8589C25.7743 49.4404 26.0626 49.0567 26.474 49.002C27.4041 48.8781 28.3204 48.4078 28.9653 47.7396C29.2553 47.4388 29.7312 47.435 30.0285 47.7311C30.3257 48.0272 30.3315 48.5111 30.0416 48.812C29.1513 49.7345 27.96 50.3466 26.6758 50.5175ZM31.4999 46.2372C31.3916 46.644 30.9788 46.8832 30.5781 46.7713C30.1773 46.6594 29.9403 46.2387 30.0486 45.8318C30.2654 45.0215 30.2478 44.1823 30.0087 43.3753C29.8891 42.9703 30.1147 42.5449 30.5125 42.4251C30.9103 42.3053 31.3297 42.5366 31.4494 42.9415C31.7714 44.0283 31.7925 45.1481 31.4999 46.2372ZM30.0577 40.503C30.3448 40.8104 30.3335 41.2954 30.0324 41.586C29.7313 41.8765 29.2542 41.8629 28.967 41.5554C28.4322 40.9838 27.7622 40.5699 27.0118 40.3844C26.6078 40.2845 26.3583 39.8709 26.4548 39.4606C26.5512 39.0504 26.957 38.7987 27.3609 38.8984C28.3904 39.1529 29.3286 39.7251 30.0577 40.503ZM8.18222 36.8868C6.05221 37.1704 5.33109 39.9446 7.04116 41.2761C8.75123 42.6077 11.193 41.1733 10.9046 39.0065C10.7252 37.6593 9.5066 36.7105 8.18222 36.8868ZM5.38128 36.8919C6.69591 35.1428 9.16055 34.8145 10.8869 36.1589C12.6134 37.5032 12.9472 40.0103 11.6326 41.7594C10.318 43.5085 7.8533 43.8366 6.12695 42.4924C4.40048 41.1482 4.0668 38.6411 5.38128 36.8919ZM12.4351 34.2586C15.2602 36.4584 15.8113 40.5976 13.6602 43.4597L9.75007 48.6625L4.6149 44.664C1.79195 42.466 1.24044 38.3228 3.38972 35.463C5.53919 32.6028 9.61214 32.0605 12.4351 34.2586ZM13.3493 33.042C14.0315 33.5732 14.6062 34.1959 15.0695 34.8807C15.7531 34.1354 16.6917 32.8953 16.3813 32.0012C15.9372 30.7224 13.1421 30.2092 11.2248 30.0227C8.41331 29.749 7.22746 27.5018 6.5483 24.996L2.29592 28.1928L3.01472 33.5915C5.81074 30.8811 10.2174 30.6034 13.3493 33.042ZM15.8306 36.2858C17.1135 34.9817 18.3932 33.2036 17.8006 31.4977C17.0758 29.4114 13.9592 28.7516 11.3608 28.4985C9.10536 28.279 8.35242 26.1145 7.85491 24.0136L13.3914 19.8515L26.6907 25.1619C26.9252 25.2583 27.2013 25.233 27.4192 25.0702L32.0166 21.614L35.5415 24.3584C35.8729 24.6166 36.3466 24.5536 36.5989 24.2176L41.6093 17.5507L48.5694 20.3299C49.4611 25.6106 48.4537 27.3218 46.7739 27.6292C44.2023 28.0998 39.9988 25.8675 37.5709 26.5879C35.7332 27.1331 34.9539 29.0175 36.3904 33.9525C36.4808 34.2631 36.5454 34.4723 36.6229 34.7232C37.0061 35.9648 40.6094 46.9442 36.9444 47.218C35.0119 47.3622 33.7655 48.2555 33.0639 49.4634C31.7549 51.7173 32.4146 55.2155 34.3859 56.7342L31.5529 58.8639L18.2536 53.5535C18.0191 53.4571 17.7429 53.4824 17.5251 53.6452L6.76203 61.7366L4.76078 46.7058L9.43631 50.3463C9.76774 50.6044 10.2414 50.5413 10.4937 50.2055L14.8609 44.3944C16.6091 42.0683 16.9538 38.9531 15.8306 36.2858ZM3.0539 45.3191C1.69876 44.0106 0.880189 42.2993 0.642075 40.5109C0.403978 38.7226 0.746115 36.8565 1.71181 35.2391L0.741881 27.9447C0.705196 27.6672 0.819242 27.3929 1.0405 27.2275C4.96682 24.2758 8.89312 21.3241 12.8194 18.3724C13.0205 18.2181 13.2937 18.1702 13.5465 18.2704L26.8556 23.5847L30.7691 20.6427L28.2587 18.688C21.2568 13.2362 24.2342 1.93383 32.8814 0.73516C41.2062 -0.4189 47.2683 9.09232 42.5384 16.2789L52.6824 20.3294C52.9515 20.4178 53.1611 20.6566 53.2016 20.9602L57.8975 56.2395C57.9745 56.8142 57.4123 57.2639 56.8802 57.0523L43.5711 51.7379L32.1246 60.3431C31.9236 60.4974 31.6504 60.5453 31.3976 60.4452L18.0885 55.1308L6.67219 63.7132C6.16746 64.1179 5.51267 63.7863 5.4378 63.224L3.0539 45.3191ZM33.7986 7.22743C35.5915 6.98872 37.2412 8.27331 37.4841 10.0971C37.8746 13.0302 34.569 14.9725 32.2537 13.1697C29.9383 11.367 30.915 7.61136 33.7986 7.22743ZM30.4313 7.56518C32.0323 5.43487 35.0342 5.0352 37.1368 6.67239C39.2394 8.30958 39.6459 11.3632 38.045 13.4933C36.4439 15.6236 33.4421 16.0233 31.3395 14.3861C29.2368 12.7491 28.8304 9.69547 30.4313 7.56518ZM35.6882 55.7551L43.0078 50.2525C43.2257 50.0896 43.5018 50.0644 43.7362 50.1608L56.2317 55.1502L51.7656 21.6063L50.1904 20.9773C50.9831 26.7281 49.4376 28.6976 47.0457 29.1354C44.1444 29.6665 39.8382 27.5094 37.9982 28.0553C36.6328 28.4604 37.0293 30.9294 38.0611 34.2718C38.6366 36.1362 39.7926 39.8808 40.0337 43.0274C40.2655 46.053 39.6606 48.5505 37.0642 48.7443C35.6925 48.8468 34.8296 49.4432 34.3633 50.2461C33.3227 52.0376 34.121 55.0733 35.6882 55.7551Z" fill="#F7E7EF"/>
</g>
<defs>
<clipPath id="clip0_7026_17816">
<rect width="60" height="59" fill="white"/>
</clipPath>
</defs>
</svg>
