<svg width="88" height="61" viewBox="0 0 88 61" fill="none" xmlns="http://www.w3.org/2000/svg">
<g clip-path="url(#clip0_7018_16597)">
<path d="M71.635 27.8462L58.613 31.6513V6.81792L37.964 0L22.953 6.01717V28.247L8.128 23.8406L0 29.3876V64H88V36.7966L71.635 27.8462ZM15.357 56.2834L11.725 55.0818V52.0783L15.357 53.2799V56.2834ZM15.357 48.4736L11.725 47.272V44.2675L15.357 45.4691V48.4736ZM15.357 41.2631L11.725 40.0615V37.058L15.357 38.2596V41.2631ZM15.357 33.4533L11.725 32.2517V29.2482L15.357 30.4498V33.4533ZM20.31 58.0853L17.008 56.8838V53.8802L20.31 55.0818V58.0853ZM20.31 50.2764L17.008 49.0748V46.0704L20.31 47.272V50.2764ZM20.31 43.066L17.008 41.8644V38.8599L20.31 40.0615V43.066ZM20.31 35.2561L17.008 34.0536V31.0501L20.31 32.2517V35.2561ZM29.885 52.4792L25.593 54.0807V50.076L29.885 48.4736V52.4792ZM29.885 42.0648L25.593 43.6672V39.6616L29.885 38.0592V42.0648ZM29.885 32.4521L25.593 34.0536V30.0489L29.885 28.4465V32.4521ZM29.885 22.0386L25.593 23.6401V19.6355L29.885 18.033V22.0386ZM29.885 12.425L25.593 14.0274V10.0218L29.885 8.42035V12.425ZM36.82 50.076L32.528 51.6766V47.671L36.82 46.0704V50.076ZM36.82 39.6625L32.528 41.2631V37.2584L36.82 35.6569V39.6625ZM36.82 30.0489L32.528 31.6513V27.6457L36.82 26.0433V30.0489ZM36.82 19.6355L32.528 21.237V17.2314L36.82 15.6299V19.6355ZM36.82 10.0218L32.528 11.6243V7.61867L36.82 6.01625V10.0218ZM46.396 52.4792L42.104 50.8777V46.8721L46.396 48.4736V52.4792ZM46.396 42.0648L42.104 40.4633V36.4577L46.396 38.0592V42.0648ZM46.396 32.4521L42.104 30.8497V26.8441L46.396 28.4465V32.4521ZM46.396 22.0386L42.104 20.4362V16.4306L46.396 18.033V22.0386ZM46.396 12.425L42.104 10.8235V6.81792L46.396 8.42035V12.425ZM53.33 54.8814L49.037 53.2799V49.2743L53.33 50.8767V54.8814ZM53.33 44.468L49.037 42.8665V38.8609L53.33 40.4633V44.468ZM53.33 34.8553L49.037 33.2538V29.2491L53.33 30.8506V34.8553ZM53.33 24.4409L49.037 22.8394V18.8338L53.33 20.4362V24.4409ZM53.33 14.8291L49.037 13.2267V9.2211L53.33 10.8235V14.8291ZM68.849 54.8814L60.264 57.2855V54.8814L68.849 52.4782V54.8814ZM68.849 49.2743L60.264 51.6775V49.2743L68.849 46.8711V49.2743ZM68.849 42.8665L60.264 45.2696V42.8665L68.849 40.4633V42.8665ZM68.849 37.2584L60.264 39.6625V37.2584L68.849 34.8543V37.2584ZM82.717 59.6878L74.132 54.8814V52.4782L82.717 57.2846V59.6878ZM82.717 54.0807L74.132 49.2743V46.8711L82.717 51.6766V54.0807ZM82.717 47.6719L74.132 42.8665V40.4633L82.717 45.2687V47.6719ZM82.717 42.0648L74.132 37.2584V34.8543L82.717 39.6616V42.0648Z" fill="#F7E7EF"/>
</g>
<defs>
<clipPath id="clip0_7018_16597">
<rect width="88" height="61" fill="white"/>
</clipPath>
</defs>
</svg>
