<svg fill="#ffffff" height="256px" width="256px" version="1.1" id="Layer_1" xmlns="http://www.w3.org/2000/svg" xmlns:xlink="http://www.w3.org/1999/xlink" viewBox="0 0 512 512" xml:space="preserve"><g id="SVGRepo_bgCarrier" stroke-width="0"></g><g id="SVGRepo_tracerCarrier" stroke-linecap="round" stroke-linejoin="round"></g><g id="SVGRepo_iconCarrier"> <g> <g> <path d="M502.941,188.276c-1.461-5.342-6.985-8.488-12.315-7.027c-5.342,1.46-8.489,6.974-7.028,12.315 c5.54,20.265,8.349,41.271,8.349,62.435c0,130.102-105.845,235.947-235.947,235.947S20.053,386.102,20.053,256 S125.898,20.053,256,20.053c71.284,0,138.517,32.33,183.149,87.245h-15.392c-5.539,0-10.027,4.489-10.027,10.027 c0,5.537,4.488,10.027,10.027,10.027h38.792c5.539,0,10.027-4.489,10.027-10.027V78.534c0-5.537-4.488-10.027-10.027-10.027 c-5.539,0-10.027,4.489-10.027,10.027v13.441C404.108,34.021,332.182,0,256,0C114.841,0,0,114.841,0,256s114.841,256,256,256 s256-114.841,256-256C512,233.05,508.952,210.264,502.941,188.276z"></path> </g> </g> <g> <g> <path d="M234.738,350.919h-80.74l50.725-50.725c25.821-25.821,40.041-60.15,40.041-96.666c0-34.462-28.037-62.499-62.499-62.499 c-34.462,0-62.499,28.037-62.499,62.499c0,5.537,4.488,10.027,10.027,10.027c5.539,0,10.027-4.489,10.027-10.027 c0-23.405,19.041-42.446,42.446-42.446c23.405,0,42.446,19.041,42.446,42.446c0,31.16-12.134,60.454-34.168,82.487l-67.842,67.842 c-2.868,2.868-3.725,7.18-2.172,10.926c1.551,3.747,5.208,6.19,9.263,6.19h104.945c5.539,0,10.027-4.489,10.027-10.027 S240.277,350.919,234.738,350.919z"></path> </g> </g> <g> <g> <path d="M395.577,282.069h-27.819V151.055c0-4.511-3.012-8.466-7.361-9.666c-4.352-1.199-8.962,0.652-11.275,4.525 l-84.224,141.041c-1.85,3.098-1.893,6.952-0.111,10.089c1.781,3.139,5.111,5.077,8.719,5.077h74.197v58.823 c0,5.537,4.488,10.027,10.027,10.027c5.539,0,10.027-4.489,10.027-10.027v-58.823h27.819c5.539,0,10.028-4.489,10.028-10.027 S401.116,282.069,395.577,282.069z M347.705,282.069h-56.531l56.531-94.667V282.069z"></path> </g> </g> <g> <g> <path d="M256,35.845c-5.539,0-10.027,4.489-10.027,10.027v13.071c0,5.537,4.489,10.027,10.027,10.027 c5.539,0,10.027-4.489,10.027-10.027V45.871C266.027,40.334,261.539,35.845,256,35.845z"></path> </g> </g> <g> <g> <path d="M256,443.031c-5.539,0-10.027,4.489-10.027,10.027v13.071c0,5.537,4.488,10.027,10.027,10.027s10.027-4.489,10.027-10.027 v-13.071C266.027,447.521,261.539,443.031,256,443.031z"></path> </g> </g> <g> <g> <path d="M468.216,245.973h-15.158c-5.539,0-10.027,4.489-10.027,10.027s4.488,10.027,10.027,10.027h15.158 c5.539,0,10.027-4.489,10.027-10.027S473.754,245.973,468.216,245.973z"></path> </g> </g> <g> <g> <path d="M58.942,245.973H43.784c-5.539,0-10.027,4.489-10.027,10.027s4.488,10.027,10.027,10.027h15.158 c5.537,0,10.027-4.489,10.027-10.027S64.481,245.973,58.942,245.973z"></path> </g> </g> <g> <g> <circle cx="440.022" cy="149.758" r="10.027"></circle> </g> </g> <g> <g> <circle cx="362.242" cy="71.977" r="10.027"></circle> </g> </g> <g> <g> <circle cx="149.744" cy="71.977" r="10.027"></circle> </g> </g> <g> <g> <circle cx="71.969" cy="149.758" r="10.027"></circle> </g> </g> <g> <g> <circle cx="71.969" cy="362.256" r="10.027"></circle> </g> </g> <g> <g> <circle cx="149.744" cy="440.035" r="10.027"></circle> </g> </g> <g> <g> <circle cx="362.242" cy="440.022" r="10.027"></circle> </g> </g> <g> <g> <circle cx="440.022" cy="362.242" r="10.027"></circle> </g> </g> </g></svg>