<svg width="64" height="52" viewBox="0 0 64 52" fill="none" xmlns="http://www.w3.org/2000/svg">
<g clip-path="url(#clip0_7039_15774)">
<path d="M63.3712 34.7331C63.1965 34.6468 63.0011 34.611 62.8071 34.6295C62.6131 34.648 62.428 34.7202 62.2728 34.838C61.1385 35.6783 59.9465 36.4377 58.7055 37.1106V7.34426H56.6072V9.09325L56.1875 9.65246C55.529 10.5229 54.6856 11.2365 53.718 11.7416C52.7505 12.2467 51.6829 12.5308 50.5922 12.5734L50.0813 11.9344L48.4425 13.2459L49.3584 14.3906L49.7099 16.8498C49.8366 17.7343 49.6414 18.6349 49.16 19.3876C48.6786 20.1403 47.943 20.6951 47.0869 20.9511L45.5908 20.0771L44.5416 21.8901L46.4196 22.9854L46.64 23.5352C47.0536 24.5671 47.156 25.6976 46.9345 26.787C46.713 27.8764 46.1773 28.8771 45.3935 29.6656L44.2573 29.4033L43.7851 31.4492L56.6072 34.4131V38.1587C54.2643 39.2244 51.7969 39.9918 49.2629 40.4428V37.7705H47.1646V40.7313C46.1194 40.8486 45.0687 40.911 44.017 40.918H41.9187V0H39.8203V1.50557C38.1278 2.48503 36.1356 2.81226 34.2187 2.4257L33.3794 2.25784L32.3302 0.508852L30.5319 1.58951L31.4405 3.10452C31.4405 3.11921 31.431 3.13285 31.431 3.14754V4.19672C31.428 5.25567 31.0239 6.27415 30.3001 7.04716C29.5764 7.82018 28.5867 8.29034 27.5302 8.36302L25.9008 6.62662L24.3711 8.0619L26.1694 9.98085C26.1345 11.7813 25.6261 13.5409 24.6953 15.0825C23.7644 16.624 22.444 17.8933 20.8669 18.7625L19.3277 17.9557L18.3541 19.8148L20.1492 20.7591L20.4766 21.5218C21.1842 23.1724 21.4405 24.9813 21.2193 26.7634C20.998 28.5455 20.3072 30.2368 19.2175 31.6643L17.9354 31.489L17.6522 33.5685L39.8203 36.5881V40.918H24.0826V37.7705C24.0826 37.4922 23.9721 37.2254 23.7753 37.0286C23.5785 36.8318 23.3117 36.7213 23.0334 36.7213H22.9285C20.4726 36.7206 18.0313 36.3445 15.6891 35.606V10.4918H13.5908V12.1275C12.5016 13.0867 11.1044 13.6231 9.65321 13.6393L9.18423 13.0098L7.50554 14.2689L8.34489 15.3883V15.5677C8.34421 16.2735 8.13271 16.9629 7.73753 17.5477C7.34235 18.1324 6.7815 18.5858 6.12692 18.8496L4.68849 17.9861L3.60784 19.7844L5.33059 20.8178C5.41132 21.5956 5.27808 22.3807 4.94526 23.0883C4.61244 23.7959 4.09267 24.3992 3.44207 24.833L1.31223 24.1773L0.695312 26.1833L2.13269 26.625C2.19322 26.7742 2.28725 26.9074 2.40751 27.0144C2.52777 27.1213 2.67103 27.1992 2.8262 27.242L13.5908 30.1786V34.8391C10.7307 33.6321 8.13214 31.8815 5.93912 29.6845C5.79239 29.5378 5.60546 29.4379 5.40197 29.3974C5.19848 29.357 4.98756 29.3777 4.79587 29.4571C4.60419 29.5365 4.44034 29.671 4.32505 29.8435C4.20977 30.0159 4.14821 30.2188 4.14816 30.4262V35.6721C4.14825 35.9373 4.24871 36.1925 4.42935 36.3866L13.7093 46.3811C15.1837 47.9644 16.9677 49.2278 18.9506 50.0929C20.9336 50.958 23.0732 51.4062 25.2367 51.4098H48.2137C52.3862 51.4051 56.3864 49.7455 59.3368 46.7952C62.2871 43.8448 63.9467 39.8446 63.9514 35.6721C63.9515 35.4772 63.8973 35.286 63.7948 35.1202C63.6923 34.9543 63.5457 34.8203 63.3712 34.7331ZM56.6072 12.2817V20.0908L52.1219 14.4839C53.7868 14.1633 55.3354 13.4029 56.6072 12.2817ZM51.846 17.4993L56.6072 23.4502V26.5012L49.2713 22.2216C50.0484 21.6994 50.6881 20.9975 51.1363 20.1754C51.5845 19.3534 51.828 18.4354 51.846 17.4993ZM47.9284 29.8334C48.9289 28.2575 49.3302 26.3747 49.0594 24.5277L56.6072 28.9301V32.2004L47.9284 29.8334ZM39.8203 3.85889V12.9993L34.7968 4.62688C36.5094 4.80446 38.239 4.54005 39.8203 3.85889ZM33.2105 6.07056L39.8203 17.0775V21.4778L29.2131 10.1634C30.1561 9.84574 31.0104 9.30925 31.7061 8.59785C32.4018 7.88645 32.9191 7.02038 33.2157 6.07056H33.2105ZM28.0695 12.0131L39.8203 24.5508V28.6961L23.0114 19.8872C25.668 18.0304 27.4854 15.2012 28.0695 12.0131ZM21.6999 31.7377C22.5372 30.3153 23.0777 28.7381 23.2889 27.1012C23.5 25.4643 23.3774 23.8015 22.9285 22.2132L39.8203 31.0557V34.4488L21.6999 31.7377ZM13.5908 14.6885V18.8852L11.1168 15.5877C11.985 15.4248 12.8206 15.121 13.5908 14.6885ZM10.0372 17.6399L13.5908 22.3822V23.3264L8.18121 20.0824C9.01331 19.4567 9.65575 18.6127 10.0372 17.6441V17.6399ZM5.79433 25.558C6.67976 24.5881 7.24373 23.3682 7.40902 22.0653L13.5908 25.7742V27.9565L5.79433 25.558ZM48.2137 49.3115H25.2367C23.361 49.3088 21.5059 48.9205 19.7866 48.1707C18.0673 47.421 16.5205 46.3258 15.2422 44.9532L6.24653 35.2598V32.8037C10.6776 36.5008 16.2165 38.6122 21.9842 38.8029V41.9672C21.9842 42.2455 22.0948 42.5123 22.2915 42.7091C22.4883 42.9059 22.7551 43.0164 23.0334 43.0164H44.017C50.2858 43.0026 56.4189 41.1903 61.6884 37.7946C61.1784 41.0029 59.5419 43.9244 57.0725 46.0351C54.603 48.1457 51.4623 49.3073 48.2137 49.3115Z" fill="#F7E7EF"/>
</g>
<defs>
<clipPath id="clip0_7039_15774">
<rect width="64" height="52" fill="white"/>
</clipPath>
</defs>
</svg>
