<svg width="62" height="67" viewBox="0 0 62 67" fill="none" xmlns="http://www.w3.org/2000/svg">
<path fill-rule="evenodd" clip-rule="evenodd" d="M33.173 19.4716L39.8553 24.6746L44.9432 17.9045C49.5923 11.7186 44.2735 3.25391 37.089 4.24982C29.8058 5.2594 27.2001 14.821 33.173 19.4716ZM38.6932 27.2263C39.1062 27.1713 39.4863 27.4673 39.5423 27.8875C39.5982 28.3076 39.3088 28.6927 38.8957 28.7477L36.1053 29.1193C35.6922 29.1743 35.3121 28.8783 35.2562 28.4581C35.2002 28.038 35.4897 27.6529 35.9027 27.5979L38.6932 27.2263ZM33.5646 27.9092C33.9776 27.8542 34.3577 28.1501 34.4136 28.5703C34.4696 28.9905 34.1802 29.3756 33.7671 29.4306L30.9216 29.8094C30.5085 29.8644 30.1284 29.5685 30.0725 29.1483C30.0165 28.7281 30.306 28.343 30.719 28.288L33.5646 27.9092ZM28.4034 28.614C28.8111 28.5314 29.2089 28.8006 29.2921 29.2154C29.3752 29.6303 29.1122 30.0336 28.7045 30.1162C27.9835 30.2637 27.2943 30.5818 26.7133 31.0216C26.3807 31.273 25.9092 31.2017 25.6605 30.8624C25.4117 30.523 25.4797 30.0442 25.8123 29.7928C26.5836 29.209 27.4514 28.8104 28.4034 28.614ZM24.0546 31.7928C24.2637 31.4275 24.7252 31.3051 25.0854 31.5194C25.4457 31.7336 25.5681 32.2034 25.359 32.5686C25.0093 33.1793 24.7821 33.8663 24.7047 34.5713C24.6588 34.9916 24.2865 35.2931 23.8727 35.2445C23.4591 35.196 23.1609 34.816 23.2068 34.3957C23.3081 33.4725 23.5995 32.5875 24.0546 31.7928ZM23.4751 37.1569C23.3491 36.7528 23.5686 36.3228 23.9656 36.1964C24.3625 36.0702 24.7865 36.2953 24.9126 36.6994C25.1172 37.3542 25.4546 37.9672 25.8846 38.4799C26.1539 38.8014 26.117 39.283 25.8019 39.5554C25.4868 39.8278 25.0129 39.788 24.7436 39.4665C24.1696 38.7823 23.7426 38.0115 23.4751 37.1569ZM26.5695 40.9899C27.2709 41.3879 28.0395 41.6552 28.8354 41.772C29.2473 41.8324 29.628 41.5421 29.6856 41.1236C29.7431 40.7051 29.4559 40.3167 29.044 40.2564C28.4252 40.1656 27.8375 39.9602 27.2954 39.6534C26.9315 39.4481 26.474 39.5807 26.2736 39.9497C26.0731 40.3189 26.2056 40.7846 26.5695 40.9899ZM15.7319 54.5106C15.3189 54.5656 14.9388 54.2696 14.8828 53.8494C14.8269 53.4293 15.1163 53.0442 15.5293 52.9892L19.5855 52.4491C19.9985 52.3941 20.3786 52.6901 20.4346 53.1103C20.4905 53.5304 20.2011 53.9155 19.788 53.9705L15.7319 54.5106ZM23.0154 53.5377C22.604 53.5925 22.2253 53.2976 22.1696 52.8791C22.1139 52.4606 22.4022 52.0769 22.8136 52.0222L27.1457 51.445C27.5571 51.3902 27.9358 51.6851 27.9915 52.1036C28.0472 52.5221 27.7589 52.9058 27.3474 52.9606L23.0154 53.5377ZM30.6758 52.5175C30.2644 52.5723 29.8857 52.2775 29.83 51.8589C29.7743 51.4404 30.0626 51.0567 30.474 51.002C31.4041 50.8781 32.3204 50.4078 32.9653 49.7396C33.2553 49.4388 33.7312 49.435 34.0285 49.7311C34.3257 50.0272 34.3315 50.5111 34.0416 50.812C33.1513 51.7345 31.96 52.3466 30.6758 52.5175ZM35.4999 48.2372C35.3916 48.644 34.9788 48.8832 34.5781 48.7713C34.1773 48.6594 33.9403 48.2387 34.0486 47.8318C34.2654 47.0215 34.2478 46.1823 34.0087 45.3753C33.8891 44.9703 34.1147 44.5449 34.5125 44.4251C34.9103 44.3053 35.3297 44.5366 35.4494 44.9415C35.7714 46.0283 35.7925 47.1481 35.4999 48.2372ZM34.0577 42.503C34.3448 42.8104 34.3335 43.2954 34.0324 43.586C33.7313 43.8765 33.2542 43.8629 32.967 43.5554C32.4322 42.9838 31.7622 42.5699 31.0118 42.3844C30.6078 42.2845 30.3583 41.8709 30.4548 41.4606C30.5512 41.0504 30.957 40.7987 31.3609 40.8984C32.3904 41.1529 33.3286 41.7251 34.0577 42.503ZM12.1822 38.8868C10.0522 39.1704 9.33109 41.9446 11.0412 43.2761C12.7512 44.6077 15.193 43.1733 14.9046 41.0065C14.7252 39.6593 13.5066 38.7105 12.1822 38.8868ZM9.38128 38.8919C10.6959 37.1428 13.1605 36.8145 14.8869 38.1589C16.6134 39.5032 16.9472 42.0103 15.6326 43.7594C14.318 45.5085 11.8533 45.8366 10.127 44.4924C8.40048 43.1482 8.0668 40.6411 9.38128 38.8919ZM16.4351 36.2586C19.2602 38.4584 19.8113 42.5976 17.6602 45.4597L13.7501 50.6625L8.6149 46.664C5.79195 44.466 5.24044 40.3228 7.38972 37.463C9.53919 34.6028 13.6121 34.0605 16.4351 36.2586ZM17.3493 35.042C18.0315 35.5732 18.6062 36.1959 19.0695 36.8807C19.7531 36.1354 20.6917 34.8953 20.3813 34.0012C19.9372 32.7224 17.1421 32.2092 15.2248 32.0227C12.4133 31.749 11.2275 29.5018 10.5483 26.996L6.29592 30.1928L7.01472 35.5915C9.81074 32.8811 14.2174 32.6034 17.3493 35.042ZM19.8306 38.2858C21.1135 36.9817 22.3932 35.2036 21.8006 33.4977C21.0758 31.4114 17.9592 30.7516 15.3608 30.4985C13.1054 30.279 12.3524 28.1145 11.8549 26.0136L17.3914 21.8515L30.6907 27.1619C30.9251 27.2583 31.2013 27.233 31.4192 27.0702L36.0167 23.614L39.5415 26.3584C39.8729 26.6166 40.3466 26.5536 40.5989 26.2176L45.6093 19.5507L52.5694 22.3299C53.4611 27.6106 52.4537 29.3218 50.7739 29.6292C48.2023 30.0998 43.9988 27.8675 41.5709 28.5879C39.7332 29.1331 38.9539 31.0175 40.3904 35.9525C40.4808 36.2631 40.5454 36.4723 40.6229 36.7232C41.0061 37.9648 44.6094 48.9442 40.9444 49.218C39.0119 49.3622 37.7655 50.2555 37.0639 51.4634C35.7549 53.7173 36.4146 57.2155 38.3859 58.7342L35.5529 60.8639L22.2536 55.5535C22.0191 55.4571 21.7429 55.4824 21.5251 55.6452L10.762 63.7366L8.76078 48.7058L13.4363 52.3463C13.7677 52.6044 14.2414 52.5413 14.4937 52.2055L18.8609 46.3944C20.6091 44.0683 20.9538 40.9531 19.8306 38.2858ZM7.0539 47.3191C5.69876 46.0106 4.88019 44.2993 4.64208 42.5109C4.40398 40.7226 4.74612 38.8565 5.71181 37.2391L4.74188 29.9447C4.7052 29.6672 4.81924 29.3929 5.0405 29.2275C8.96682 26.2759 12.8931 23.3241 16.8194 20.3724C17.0205 20.2181 17.2937 20.1702 17.5465 20.2704L30.8556 25.5847L34.7691 22.6427L32.2587 20.688C25.2568 15.2362 28.2342 3.93383 36.8814 2.73516C45.2062 1.5811 51.2683 11.0923 46.5384 18.2789L56.6824 22.3294C56.9515 22.4178 57.1611 22.6566 57.2015 22.9602L61.8975 58.2395C61.9745 58.8142 61.4123 59.2639 60.8802 59.0523L47.5711 53.7379L36.1246 62.3431C35.9236 62.4974 35.6504 62.5453 35.3976 62.4452L22.0885 57.1308L10.6722 65.7132C10.1675 66.1179 9.51267 65.7863 9.4378 65.224L7.0539 47.3191ZM37.7986 9.22743C39.5915 8.98872 41.2412 10.2733 41.4841 12.0971C41.8746 15.0302 38.569 16.9725 36.2537 15.1697C33.9383 13.367 34.915 9.61136 37.7986 9.22743ZM34.4313 9.56518C36.0323 7.43487 39.0342 7.0352 41.1368 8.67239C43.2394 10.3096 43.6459 13.3632 42.045 15.4933C40.4439 17.6236 37.4421 18.0233 35.3395 16.3861C33.2368 14.7491 32.8304 11.6955 34.4313 9.56518ZM39.6882 57.7551L47.0078 52.2525C47.2257 52.0896 47.5018 52.0644 47.7362 52.1608L60.2317 57.1502L55.7656 23.6063L54.1904 22.9773C54.9831 28.7281 53.4376 30.6976 51.0457 31.1354C48.1444 31.6665 43.8382 29.5094 41.9982 30.0553C40.6328 30.4604 41.0293 32.9294 42.0611 36.2718C42.6366 38.1362 43.7926 41.8808 44.0337 45.0274C44.2655 48.053 43.6606 50.5505 41.0642 50.7443C39.6925 50.8468 38.8296 51.4432 38.3633 52.2461C37.3227 54.0376 38.121 57.0733 39.6882 57.7551Z" fill="#F7E7EF"/>
</svg>
