<svg width="73" height="64" viewBox="0 0 73 64" fill="none" xmlns="http://www.w3.org/2000/svg">
<g clip-path="url(#clip0_7039_15464)">
<path d="M31.3133 10.7342C31.3133 6.86694 28.1664 3.71726 24.2964 3.71726C20.4291 3.71726 17.2794 6.86419 17.2794 10.7342C17.2794 14.6015 20.4263 17.7512 24.2964 17.7512C28.1665 17.7512 31.3133 14.6042 31.3133 10.7342ZM24.8698 4.89523C26.059 5.01105 27.1438 5.4828 28.0167 6.20033L24.8698 9.34726V4.89523ZM23.7229 9.35008L20.576 6.20315C21.4516 5.48281 22.5364 5.0139 23.7229 4.89805V9.35008ZM23.7229 16.5761C22.5336 16.4603 21.4489 15.9885 20.576 15.271L23.7229 12.1241V16.5761ZM24.8698 12.1213L28.0167 15.2682C27.141 15.9885 26.0563 16.4574 24.8698 16.5733V12.1213ZM28.8303 14.4574L25.1071 10.7343L28.8303 7.01396C29.6636 8.02806 30.1665 9.3247 30.1665 10.7343C30.1636 12.1467 29.6636 13.4433 28.8303 14.4574ZM19.7625 7.01389L23.4856 10.7342L19.7625 14.4546C18.9292 13.4405 18.4263 12.1438 18.4263 10.7342C18.4291 9.32462 18.9291 8.02799 19.7625 7.01389ZM52.4662 26.449C48.599 26.449 45.4493 29.5959 45.4493 33.466C45.4493 37.3332 48.5962 40.4829 52.4662 40.4829C56.3335 40.4829 59.4832 37.336 59.4832 33.466C59.4832 29.5959 56.3363 26.449 52.4662 26.449ZM53.0425 27.6241C54.2318 27.74 55.3165 28.2117 56.1895 28.9292L53.0425 32.0762V27.6241ZM51.8928 32.079L48.7459 28.9321C49.6216 28.2117 50.7063 27.7428 51.8928 27.627V32.079ZM51.8928 39.305C50.7036 39.1892 49.6188 38.7175 48.7459 37.9999L51.8928 34.853V39.305ZM53.0425 34.8502L56.1895 37.9971C55.3138 38.7175 54.229 39.1864 53.0425 39.3022V34.8502ZM53.2798 33.4631L57.003 29.74C57.8363 30.7541 58.3392 32.0507 58.3392 33.4631C58.3392 34.8756 57.8392 36.1722 57.003 37.1835L53.2798 33.4631ZM47.9352 29.7428L51.6555 33.4631L47.9352 37.1835C47.1019 36.1694 46.6018 34.8727 46.6018 33.4631C46.599 32.0535 47.099 30.7569 47.9352 29.7428ZM72.0513 5.86167C71.8847 5.75715 71.6756 5.74302 71.5005 5.82777L48.0229 16.8901L35.0341 10.7686V10.7347C35.0341 4.81658 30.2176 0 24.2994 0C18.7824 0.00282469 14.2286 4.18077 13.6298 9.53713L0.381355 14.2603C0.152538 14.3394 0 14.5569 0 14.7998V60.7065C0 60.8929 0.0903959 61.0681 0.242941 61.1754C0.395486 61.2827 0.590401 61.311 0.765545 61.246L24.2656 52.8703L47.7743 63.9463C47.8506 63.983 47.9353 64 48.0201 64C48.1048 64 48.1867 63.983 48.2658 63.9463L71.9893 52.7683C72.1899 52.6723 72.3198 52.4717 72.3198 52.2486L72.317 6.34408C72.317 6.14917 72.2152 5.96619 72.0513 5.86167ZM66.5541 26.2767C65.5372 26.1863 63.8903 25.8614 63.1643 24.9575C62.136 23.6806 62.9948 21.4546 63.0033 21.432C63.0795 21.2371 63.0456 21.0196 62.9157 20.8586C62.7829 20.6976 62.5739 20.6213 62.3705 20.6552C61.6897 20.7767 59.7546 20.9094 58.9835 20.0846C58.3224 19.3755 58.5852 18.0478 58.8083 17.3953L66.557 13.7455L66.5541 26.2767ZM58.1444 20.8698C59.0597 21.8529 60.6642 21.9433 61.6783 21.8868C61.458 22.8727 61.3111 24.4857 62.2715 25.6806C63.3478 27.0168 65.5173 27.3472 66.5569 27.4292V49.7425L48.5963 58.2057V55.9628C51.2771 55.1464 52.828 53.3667 53.0229 50.8949C54.9268 50.7622 61.2605 50.0757 62.6301 46.8187C63.7997 44.0305 61.9522 41.7141 60.5002 40.6209C62.0454 38.0446 63.2064 35.4486 63.2064 33.4712C63.2064 27.5531 58.39 22.7365 52.4718 22.7365C51.1074 22.7365 49.7994 22.9964 48.5988 23.4625V22.2167L57.4829 18.0302C57.3417 18.8946 57.3699 20.0386 58.144 20.8692L58.1444 20.8698ZM23.7231 27.836V29.0704C22.7513 28.9461 20.9632 28.8359 19.6807 29.4828C18.6016 30.0252 18.0875 31.3303 17.5904 32.5902C17.2034 33.5676 16.8051 34.5761 16.1808 35.1552C15.435 35.8501 14.5593 35.9631 13.6356 36.0846C12.8729 36.1835 12.0819 36.288 11.4124 36.7513C10.6836 37.257 10.3164 38.0225 9.96044 38.7626C9.59603 39.5225 9.2514 40.2428 8.53385 40.7258C7.53385 41.401 6.0706 41.497 5.29934 41.4942V18.0477L14.6101 14.7285C16.9915 20.1268 22.6948 26.6775 23.7231 27.836ZM33.5481 15.6607L43.1387 20.1805C43.0539 21.0365 42.7065 23.1297 41.2687 23.4856C39.6698 23.8811 37.5229 22.285 36.8308 21.6353C36.715 21.5251 36.5568 21.4715 36.3958 21.4799C36.2347 21.4912 36.0879 21.5703 35.989 21.6975C35.9777 21.7116 34.7658 23.2173 32.7912 23.2173C31.3477 23.2173 30.3166 22.1042 29.8957 21.5534C31.2347 19.6862 32.5734 17.624 33.5481 15.6607ZM29.1893 22.5111C29.8249 23.2625 31.0537 24.3642 32.7882 24.3642C34.5792 24.3642 35.8589 23.4207 36.4747 22.8444C37.26 23.48 38.9945 24.6975 40.729 24.6975C41.0001 24.6975 41.2742 24.6664 41.5425 24.6014C43.4634 24.124 44.051 21.9348 44.2289 20.6975L47.4408 22.2117V23.9829C44.0453 25.7879 41.729 29.3614 41.729 33.4657C41.729 33.8358 41.7713 34.2285 41.8476 34.6381C40.6527 34.7821 38.2826 35.2624 37.4126 36.8047C36.5905 38.2624 37.3561 40.2991 37.9154 41.4262C35.9634 41.6409 31.5792 42.4658 31.5792 45.5025C31.5792 47.2398 33.6527 48.9968 37.9182 50.8698C41.1979 52.3105 44.9916 53.4517 47.4466 54.0449V58.2059L24.8701 47.5674V40.3414C25.2628 40.3979 25.6611 40.429 26.0707 40.429C29.1385 40.429 31.5425 38.847 31.5425 36.8244C31.5425 34.8046 29.1385 33.2199 26.0707 33.2199C25.6639 33.2199 25.2628 33.2509 24.8701 33.3074V27.8328C25.4096 27.2283 27.2316 25.141 29.1893 22.5111ZM61.5677 46.3669C60.6722 48.4997 56.4631 49.3839 53.8218 49.6664C55.1834 48.076 57.771 44.9206 59.8868 41.5987C60.7738 42.2993 62.5395 44.0561 61.5677 46.3669ZM39.3332 41.6211C38.8501 40.8443 37.74 38.5618 38.4151 37.3669C39.0083 36.316 41.0083 35.8866 42.1326 35.7623C43.0309 38.6663 45.3021 42.1776 47.4434 45.0702V52.8609C45.0366 52.2648 41.4716 51.1773 38.3785 49.8185C33.2768 47.5755 32.726 46.053 32.726 45.5021C32.726 42.8213 38.805 42.5021 38.8672 42.4993C39.0706 42.4908 39.2571 42.375 39.3503 42.1942C39.4492 42.0106 39.4405 41.7934 39.3332 41.6211ZM48.5933 46.5816C50.1301 48.5562 51.4408 50.0534 51.8871 50.559C51.7967 53.0025 50.1865 54.1833 48.5933 54.7512V46.5816ZM52.4662 49.4771C50.5538 47.2765 42.8785 38.1523 42.8785 33.4655C42.8785 28.1801 47.1779 23.8777 52.4662 23.8777C57.7516 23.8777 62.054 28.1772 62.054 33.4655C62.054 38.1519 54.379 47.2765 52.4662 49.4771ZM24.8702 34.4685C25.2572 34.4035 25.6612 34.3696 26.0708 34.3696C28.4126 34.3696 30.3929 35.4939 30.3929 36.8244C30.3929 38.1549 28.4126 39.2792 26.0708 39.2792C25.6612 39.2792 25.2601 39.2453 24.8702 39.1775V34.4685ZM23.7233 39.412C21.5707 38.8837 20.1188 37.864 20.1188 36.8244C20.1188 35.7877 21.5707 34.7651 23.7233 34.2369V39.412ZM5.29919 48.5673C6.12404 48.1775 8.56755 47.1577 11.4546 47.1577C13.9517 47.1577 16.7851 48.6181 18.2399 49.4769L5.29883 54.0899L5.29919 48.5673ZM19.6244 48.9854C18.6272 48.3272 14.8645 46.0108 11.4548 46.0108C8.76266 46.0108 6.47738 46.8046 5.29941 47.3074V42.6435H5.32766C6.24572 42.6435 7.93222 42.5164 9.17513 41.6775C10.1497 41.0193 10.5989 40.0843 10.9943 39.2593C11.3107 38.5983 11.5847 38.0277 12.065 37.6972C12.5057 37.3921 13.0989 37.3158 13.7853 37.2254C14.7994 37.0926 15.9464 36.9429 16.9633 35.9994C17.7797 35.2423 18.226 34.1096 18.6582 33.0135C19.0961 31.9033 19.5114 30.8553 20.1978 30.5079C21.2684 29.9684 22.9294 30.1152 23.7232 30.2282V33.0588C20.8193 33.7029 18.9718 35.152 18.9718 36.8243C18.9718 38.4966 20.8221 39.9458 23.7232 40.5899V47.5249L19.6244 48.9854ZM24.8702 48.8328C28.7148 50.6436 44.9323 58.2846 47.4467 59.4713V62.525L24.8702 51.8865V48.8328ZM47.4467 17.8863V20.94L34.0342 14.6208C34.4381 13.6914 34.7404 12.7988 34.9014 11.9739L47.4467 17.8863ZM24.2967 1.14863C29.5821 1.14863 33.8845 5.44807 33.8845 10.7364C33.8845 15.4229 26.2095 24.5503 24.2967 26.748C22.3843 24.5474 14.709 15.4232 14.709 10.7364C14.7118 5.44822 19.0112 1.14863 24.2967 1.14863ZM1.1467 15.2027L13.562 10.7789C13.5705 11.6433 13.7965 12.6207 14.175 13.6659L4.52798 17.1038C4.29916 17.1857 4.14663 17.4004 4.14663 17.6433V54.9031C4.14663 55.0895 4.23702 55.2647 4.38957 55.372C4.54211 55.4794 4.73703 55.5076 4.91217 55.4426L23.7174 48.7421V51.8466L1.14664 59.8918L1.1467 15.2027ZM71.1695 51.8867L48.593 62.5253V59.4715L67.3729 50.6243C67.5735 50.5283 67.7034 50.3277 67.7034 50.1045L67.7006 12.8419C67.7006 12.6442 67.5989 12.4634 67.435 12.356C67.2684 12.2515 67.0622 12.2374 66.8842 12.3221L48.5931 20.9408V17.8871L71.1697 7.2515L71.1695 51.8867ZM33.9691 31.4573C35.8081 31.4573 37.2516 30.4121 37.2516 29.0787C37.2516 27.7453 35.8109 26.7001 33.9691 26.7001C32.1301 26.7001 30.6866 27.7453 30.6866 29.0787C30.6866 30.4121 32.1301 31.4573 33.9691 31.4573ZM33.9691 27.8471C35.2262 27.8471 36.1018 28.4968 36.1018 29.0787C36.1018 29.6606 35.2262 30.3103 33.9691 30.3103C32.712 30.3103 31.8363 29.6606 31.8363 29.0787C31.8363 28.494 32.712 27.8471 33.9691 27.8471Z" fill="#F7E7EF"/>
</g>
<defs>
<clipPath id="clip0_7039_15464">
<rect width="73" height="64" fill="white"/>
</clipPath>
</defs>
</svg>
